<svg id="master-artboard" xmlns="http://www.w3.org/2000/svg" xmlns:xlink="http://www.w3.org/1999/xlink" viewBox="0 0 1430 1273.96"><defs><style>.cls-1,.cls-2{fill:none;}.cls-1,.cls-5{stroke-miterlimit:10;stroke:url(#linear-gradient);}.cls-3{fill:#fff;fill-opacity:0;}.cls-4{clip-path:url(#clip-path);}.cls-5{fill:#222322;}.cls-6{clip-path:url(#clip-path-2);}.cls-7{fill:#021321;}.cls-8{clip-path:url(#clip-path-59);}.cls-9{fill:url(#radial-gradient);}.cls-10{clip-path:url(#clip-path-60);}.cls-11{fill:url(#radial-gradient-2);}.cls-12{clip-path:url(#clip-path-61);}.cls-13{fill:url(#radial-gradient-3);}.cls-14{clip-path:url(#clip-path-62);}.cls-15{fill:url(#radial-gradient-4);}.cls-16{fill:url(#radial-gradient-5);}.cls-17{fill:url(#radial-gradient-6);}.cls-18{fill:url(#radial-gradient-7);}.cls-19{fill:url(#radial-gradient-8);}.cls-20{clip-path:url(#clip-path-67);}.cls-21{fill:url(#radial-gradient-9);}.cls-22{clip-path:url(#clip-path-68);}.cls-23{fill:url(#radial-gradient-10);}.cls-24{fill:url(#radial-gradient-11);}.cls-25{fill:url(#radial-gradient-12);}.cls-26{clip-path:url(#clip-path-71);}.cls-27{fill:url(#radial-gradient-13);}.cls-28{clip-path:url(#clip-path-72);}.cls-29{fill:url(#radial-gradient-14);}.cls-30{clip-path:url(#clip-path-73);}.cls-31{fill:url(#radial-gradient-15);}.cls-32{clip-path:url(#clip-path-74);}.cls-33{fill:url(#radial-gradient-16);}.cls-34{clip-path:url(#clip-path-75);}.cls-35{fill:url(#radial-gradient-17);}.cls-36{clip-path:url(#clip-path-76);}.cls-37{fill:url(#radial-gradient-18);}.cls-38{clip-path:url(#clip-path-77);}.cls-39{fill:url(#radial-gradient-19);}.cls-40{clip-path:url(#clip-path-78);}.cls-41{fill:url(#radial-gradient-20);}.cls-42{clip-path:url(#clip-path-79);}.cls-43{fill:url(#radial-gradient-21);}.cls-44{fill:url(#radial-gradient-22);}.cls-45{clip-path:url(#clip-path-81);}.cls-46{fill:url(#radial-gradient-23);}.cls-47{clip-path:url(#clip-path-82);}.cls-48{fill:url(#radial-gradient-24);}.cls-49{clip-path:url(#clip-path-83);}.cls-50{fill:url(#radial-gradient-25);}.cls-51{fill:url(#radial-gradient-26);}.cls-52{fill:url(#radial-gradient-27);}.cls-53{fill:url(#radial-gradient-28);}.cls-54{fill:url(#radial-gradient-29);}.cls-55{fill:url(#radial-gradient-30);}.cls-56{clip-path:url(#clip-path-89);}.cls-57{fill:url(#radial-gradient-31);}.cls-58{clip-path:url(#clip-path-90);}.cls-59{fill:url(#radial-gradient-32);}.cls-60{clip-path:url(#clip-path-91);}.cls-61{fill:url(#radial-gradient-33);}.cls-62{clip-path:url(#clip-path-92);}.cls-63{fill:url(#radial-gradient-34);}.cls-64{clip-path:url(#clip-path-93);}.cls-65{fill:url(#radial-gradient-35);}.cls-66{fill:url(#radial-gradient-36);}.cls-67{fill:url(#radial-gradient-37);}.cls-68{fill:url(#radial-gradient-38);}.cls-69{clip-path:url(#clip-path-97);}.cls-70{fill:url(#radial-gradient-39);}.cls-71{clip-path:url(#clip-path-98);}.cls-72{fill:url(#radial-gradient-40);}.cls-73{fill:url(#radial-gradient-41);}.cls-74{fill:url(#radial-gradient-42);}.cls-75{fill:url(#radial-gradient-43);}.cls-76{fill:url(#radial-gradient-44);}.cls-77{clip-path:url(#clip-path-103);}.cls-78{fill:url(#radial-gradient-45);}.cls-79{fill:url(#radial-gradient-46);}.cls-80{fill:url(#radial-gradient-47);}.cls-81{fill:url(#radial-gradient-48);}.cls-82{fill:url(#radial-gradient-49);}.cls-83{fill:url(#radial-gradient-50);}.cls-84{fill:url(#radial-gradient-51);}.cls-85{fill:url(#radial-gradient-52);}.cls-86{fill:url(#radial-gradient-53);}.cls-87{fill:url(#radial-gradient-54);}.cls-88{fill:url(#radial-gradient-55);}.cls-89{fill:url(#radial-gradient-56);}.cls-90{fill:url(#radial-gradient-57);}.cls-91{fill:url(#radial-gradient-58);}.cls-100,.cls-101,.cls-103,.cls-105,.cls-106,.cls-110,.cls-92,.cls-94,.cls-95,.cls-96,.cls-97,.cls-99{opacity:0.14;}.cls-100,.cls-101,.cls-103,.cls-104,.cls-105,.cls-106,.cls-110,.cls-112,.cls-113,.cls-114,.cls-122,.cls-124,.cls-92,.cls-94,.cls-95,.cls-96,.cls-97,.cls-99{isolation:isolate;}.cls-92{fill:url(#radial-gradient-59);}.cls-93{clip-path:url(#clip-path-204);}.cls-94{fill:url(#radial-gradient-60);}.cls-95{fill:url(#radial-gradient-61);}.cls-96{fill:url(#radial-gradient-62);}.cls-97{fill:url(#radial-gradient-63);}.cls-98{clip-path:url(#clip-path-207);}.cls-99{fill:url(#radial-gradient-64);}.cls-100{fill:url(#radial-gradient-65);}.cls-101{fill:url(#radial-gradient-66);}.cls-102{clip-path:url(#clip-path-210);}.cls-103{fill:url(#radial-gradient-67);}.cls-104,.cls-112,.cls-113,.cls-114,.cls-122,.cls-124{opacity:0.26;}.cls-104{fill:url(#radial-gradient-68);}.cls-105{fill:url(#radial-gradient-69);}.cls-106{fill:url(#radial-gradient-70);}.cls-107{fill:url(#radial-gradient-71);}.cls-108{fill:url(#radial-gradient-72);}.cls-109{clip-path:url(#clip-path-215);}.cls-110{fill:url(#radial-gradient-73);}.cls-111{clip-path:url(#clip-path-216);}.cls-112{fill:url(#radial-gradient-74);}.cls-113{fill:url(#radial-gradient-75);}.cls-114{fill:url(#radial-gradient-76);}.cls-115{clip-path:url(#clip-path-217);}.cls-116{fill:url(#radial-gradient-77);}.cls-117{clip-path:url(#clip-path-218);}.cls-118{fill:url(#radial-gradient-78);}.cls-119{clip-path:url(#clip-path-220);}.cls-120{clip-path:url(#clip-path-221);}.cls-121{clip-path:url(#clip-path-222);}.cls-122{fill:url(#radial-gradient-79);}.cls-123{fill:url(#linear-gradient-4);}.cls-124{fill:url(#radial-gradient-80);}</style><linearGradient id="linear-gradient" x1="-1.5" y1="448.16" x2="1399.5" y2="448.16" gradientUnits="userSpaceOnUse"><stop offset="0" stop-color="#fff"/><stop offset="1"/></linearGradient><clipPath id="clip-path" transform="translate(1.5 250.2)"><rect class="cls-1" x="-1" y="-125.86" width="1400" height="1148.05"/></clipPath><clipPath id="clip-path-2" transform="translate(1.5 250.2)"><rect class="cls-2" width="1400" height="980"/></clipPath><clipPath id="clip-path-59" transform="translate(1.5 250.2)"><rect class="cls-2" x="374" y="-265.26" width="1400" height="980"/></clipPath><radialGradient id="radial-gradient" cx="376.95" cy="260.74" r="17.25" gradientTransform="matrix(1, -0.09, -0.09, -1, 720.62, 674.57)" gradientUnits="userSpaceOnUse"><stop offset="0" stop-color="#f1f2f2"/><stop offset="0.11" stop-color="#cacaca"/><stop offset="0.28" stop-color="#979697"/><stop offset="0.44" stop-color="#6e6b6c"/><stop offset="0.6" stop-color="#4d4a4b"/><stop offset="0.75" stop-color="#363233"/><stop offset="0.88" stop-color="#282425"/><stop offset="1" stop-color="#231f20"/></radialGradient><clipPath id="clip-path-60" transform="translate(1.5 250.2)"><rect class="cls-2" x="-316.34" y="28.01" width="1400" height="980"/></clipPath><radialGradient id="radial-gradient-2" cx="298.24" cy="308.54" r="17.26" gradientTransform="matrix(1, -0.09, -0.09, -1, 30.28, 967.84)" xlink:href="#radial-gradient"/><clipPath id="clip-path-61" transform="translate(1.5 250.2)"><rect class="cls-2" x="-428.38" y="-9.89" width="1400" height="980"/></clipPath><radialGradient id="radial-gradient-3" cx="476.21" cy="298.91" r="17.26" gradientTransform="matrix(1, -0.09, -0.09, -1, -81.76, 929.95)" xlink:href="#radial-gradient"/><clipPath id="clip-path-62" transform="translate(1.5 250.2)"><rect class="cls-2" x="60.96" y="-47.78" width="1400" height="980"/></clipPath><radialGradient id="radial-gradient-4" cx="663.94" cy="276.43" r="17.26" gradientTransform="matrix(1, -0.09, -0.09, -1, 407.58, 892.05)" xlink:href="#radial-gradient"/><radialGradient id="radial-gradient-5" cx="1033.67" cy="8.05" r="7.61" gradientTransform="matrix(1, -0.09, -0.09, -1, 346.62, 939.83)" xlink:href="#radial-gradient"/><radialGradient id="radial-gradient-6" cx="691.81" cy="191.18" r="17.25" gradientTransform="matrix(1, -0.09, -0.09, -1, 346.62, 939.83)" xlink:href="#radial-gradient"/><radialGradient id="radial-gradient-7" cx="947.06" cy="182.5" r="17.26" gradientTransform="matrix(1, -0.09, -0.09, -1, 346.62, 939.83)" xlink:href="#radial-gradient"/><radialGradient id="radial-gradient-8" cx="-228.71" cy="316.28" r="11.98" gradientTransform="matrix(1, -0.09, -0.09, -1, 346.62, 939.83)" xlink:href="#radial-gradient"/><clipPath id="clip-path-67" transform="translate(1.5 250.2)"><rect class="cls-2" x="313.04" y="-616.2" width="1400" height="980"/></clipPath><radialGradient id="radial-gradient-9" cx="514.81" cy="102.17" r="5.33" gradientTransform="matrix(1, -0.09, -0.09, -1, 659.66, 323.63)" xlink:href="#radial-gradient"/><clipPath id="clip-path-68" transform="translate(1.5 250.2)"><rect class="cls-2" x="-299.86" y="-652.45" width="1400" height="980"/></clipPath><radialGradient id="radial-gradient-10" cx="261.7" cy="124.47" r="5.33" gradientTransform="matrix(1, -0.09, -0.09, -1, 46.76, 287.38)" xlink:href="#radial-gradient"/><radialGradient id="radial-gradient-11" cx="907.78" cy="87.43" r="17.25" gradientTransform="matrix(1, -0.09, -0.09, -1, 346.62, 939.83)" xlink:href="#radial-gradient"/><radialGradient id="radial-gradient-12" cx="848.14" cy="129.13" r="12.19" gradientTransform="matrix(1, -0.09, -0.09, -1, 346.62, 939.83)" xlink:href="#radial-gradient"/><clipPath id="clip-path-71" transform="translate(1.5 250.2)"><rect class="cls-2" x="-430.02" y="-405.31" width="1400" height="980"/></clipPath><radialGradient id="radial-gradient-13" cx="372.97" cy="63.56" r="13.67" gradientTransform="matrix(1, -0.09, -0.09, -1, -83.4, 534.52)" xlink:href="#radial-gradient"/><clipPath id="clip-path-72" transform="translate(1.5 250.2)"><rect class="cls-2" x="336.11" y="-258.67" width="1400" height="980"/></clipPath><radialGradient id="radial-gradient-14" cx="440.64" cy="13.73" r="13.68" gradientTransform="matrix(1, -0.09, -0.09, -1, 682.73, 681.16)" xlink:href="#radial-gradient"/><clipPath id="clip-path-73" transform="translate(1.5 250.2)"><rect class="cls-2" x="-472.86" y="-583.25" width="1400" height="980"/></clipPath><radialGradient id="radial-gradient-15" cx="407.81" cy="-15.36" r="13.68" gradientTransform="matrix(1, -0.09, -0.09, -1, -126.24, 356.58)" xlink:href="#radial-gradient"/><clipPath id="clip-path-74" transform="translate(1.5 250.2)"><rect class="cls-2" x="420.14" y="-502.52" width="1400" height="980"/></clipPath><radialGradient id="radial-gradient-16" cx="378.4" cy="23.69" r="13.67" gradientTransform="matrix(1, -0.09, -0.09, -1, 766.76, 437.32)" xlink:href="#radial-gradient"/><clipPath id="clip-path-75" transform="translate(1.5 250.2)"><rect class="cls-2" x="375.65" y="-288.33" width="1400" height="980"/></clipPath><radialGradient id="radial-gradient-17" cx="423.85" cy="85.81" r="13.21" gradientTransform="matrix(1, -0.09, -0.09, -1, 722.27, 651.5)" xlink:href="#radial-gradient"/><clipPath id="clip-path-76" transform="translate(1.5 250.2)"><rect class="cls-2" x="-382.24" y="-509.11" width="1400" height="980"/></clipPath><radialGradient id="radial-gradient-18" cx="414.99" cy="134.17" r="13.2" gradientTransform="matrix(1, -0.09, -0.09, -1, -35.62, 430.73)" xlink:href="#radial-gradient"/><clipPath id="clip-path-77" transform="translate(1.5 250.2)"><rect class="cls-2" x="-324.58" y="-148.28" width="1400" height="980"/></clipPath><radialGradient id="radial-gradient-19" cx="330.31" cy="98.36" r="7.44" gradientTransform="matrix(1, -0.09, -0.09, -1, 22.04, 791.55)" xlink:href="#radial-gradient"/><clipPath id="clip-path-78" transform="translate(1.5 250.2)"><rect class="cls-2" x="-367.41" y="-599.73" width="1400" height="980"/></clipPath><radialGradient id="radial-gradient-20" cx="334.75" cy="33.81" r="9.64" gradientTransform="matrix(1, -0.09, -0.09, -1, -20.79, 340.11)" xlink:href="#radial-gradient"/><clipPath id="clip-path-79" transform="translate(1.5 250.2)"><rect class="cls-2" x="270.21" y="-205.95" width="1400" height="980"/></clipPath><radialGradient id="radial-gradient-21" cx="434.39" cy="258.55" r="9.88" gradientTransform="matrix(1, -0.09, -0.09, -1, 616.83, 733.88)" xlink:href="#radial-gradient"/><radialGradient id="radial-gradient-22" cx="87.99" cy="255.18" r="9.89" gradientTransform="matrix(1, -0.09, -0.09, -1, 346.62, 939.83)" xlink:href="#radial-gradient"/><clipPath id="clip-path-81" transform="translate(1.5 250.2)"><rect class="cls-2" x="-359.18" y="-313.04" width="1400" height="980"/></clipPath><radialGradient id="radial-gradient-23" cx="363.93" cy="223.31" r="6.81" gradientTransform="matrix(1, -0.09, -0.09, -1, -12.56, 626.79)" xlink:href="#radial-gradient"/><clipPath id="clip-path-82" transform="translate(1.5 250.2)"><rect class="cls-2" x="370.71" y="-240.55" width="1400" height="980"/></clipPath><radialGradient id="radial-gradient-24" cx="418.25" cy="225.4" r="9.88" gradientTransform="matrix(1, -0.09, -0.09, -1, 717.33, 699.28)" xlink:href="#radial-gradient"/><clipPath id="clip-path-83" transform="translate(1.5 250.2)"><rect class="cls-2" x="514.14" y="-29.88" width="1559.85" height="1091.89"/></clipPath><radialGradient id="radial-gradient-25" cx="1208.77" cy="-12.21" r="9.88" gradientTransform="matrix(-1.11, 0.1, 0.1, 1.11, 2520.78, 213.61)" xlink:href="#radial-gradient"/><radialGradient id="radial-gradient-26" cx="80.97" cy="186.13" r="9.88" gradientTransform="matrix(1, -0.09, -0.09, -1, 346.62, 939.83)" xlink:href="#radial-gradient"/><radialGradient id="radial-gradient-27" cx="-72.03" cy="105.89" r="9.89" gradientTransform="matrix(1, -0.09, -0.09, -1, 346.62, 939.83)" xlink:href="#radial-gradient"/><radialGradient id="radial-gradient-28" cx="138.37" cy="187.23" r="17.27" gradientTransform="matrix(1, -0.09, -0.09, -1, 346.62, 939.83)" xlink:href="#radial-gradient"/><radialGradient id="radial-gradient-29" cx="96.43" cy="70.61" r="17.27" gradientTransform="matrix(1, -0.09, -0.09, -1, 346.62, 939.83)" xlink:href="#radial-gradient"/><radialGradient id="radial-gradient-30" cx="96.55" cy="146.87" r="9.88" gradientTransform="matrix(1, -0.09, -0.09, -1, 346.62, 939.83)" xlink:href="#radial-gradient"/><clipPath id="clip-path-89" transform="translate(1.5 250.2)"><rect class="cls-2" x="-372.36" y="-42.84" width="1400" height="980"/></clipPath><radialGradient id="radial-gradient-31" cx="354.65" cy="331.91" r="9.88" gradientTransform="matrix(1, -0.09, -0.09, -1, -25.74, 897)" xlink:href="#radial-gradient"/><clipPath id="clip-path-90" transform="translate(1.5 250.2)"><rect class="cls-2" x="80.73" y="-140.05" width="1400" height="980"/></clipPath><radialGradient id="radial-gradient-32" cx="546.22" cy="181.69" r="9.88" gradientTransform="matrix(1, -0.09, -0.09, -1, 427.35, 799.79)" xlink:href="#radial-gradient"/><clipPath id="clip-path-91" transform="translate(1.5 250.2)"><rect class="cls-2" x="-433.32" y="-540.41" width="1400" height="980"/></clipPath><radialGradient id="radial-gradient-33" cx="373.08" cy="162.98" r="9.88" gradientTransform="matrix(1, -0.09, -0.09, -1, -86.7, 399.42)" xlink:href="#radial-gradient"/><clipPath id="clip-path-92" transform="translate(1.5 250.2)"><rect class="cls-2" x="374" y="-392.13" width="1400" height="980"/></clipPath><radialGradient id="radial-gradient-34" cx="396.61" cy="191.92" r="7.51" gradientTransform="matrix(1, -0.09, -0.09, -1, 720.62, 547.71)" xlink:href="#radial-gradient"/><clipPath id="clip-path-93" transform="translate(1.5 250.2)"><rect class="cls-2" x="378.95" y="-222.43" width="1400" height="980"/></clipPath><radialGradient id="radial-gradient-35" cx="359.74" cy="200.38" r="7.51" gradientTransform="matrix(1, -0.09, -0.09, -1, 725.57, 717.41)" xlink:href="#radial-gradient"/><radialGradient id="radial-gradient-36" cx="581.48" cy="71.28" r="9.88" gradientTransform="matrix(1, -0.09, -0.09, -1, 346.62, 939.83)" xlink:href="#radial-gradient"/><radialGradient id="radial-gradient-37" cx="627.56" cy="70.01" r="12.8" gradientTransform="matrix(1, -0.09, -0.09, -1, 346.62, 939.83)" xlink:href="#radial-gradient"/><radialGradient id="radial-gradient-38" cx="748.11" cy="48.75" r="12.8" gradientTransform="matrix(1, -0.09, -0.09, -1, 346.62, 939.83)" xlink:href="#radial-gradient"/><clipPath id="clip-path-97" transform="translate(1.5 250.2)"><rect class="cls-2" x="148.41" y="-441.24" width="1502.07" height="1051.45"/></clipPath><radialGradient id="radial-gradient-39" cx="594.86" cy="228.33" r="9.88" gradientTransform="matrix(1.07, -0.1, -0.1, -1.07, 491.57, 560.26)" xlink:href="#radial-gradient"/><clipPath id="clip-path-98" transform="translate(1.5 250.2)"><rect class="cls-2" x="194.42" y="-224.07" width="1400" height="980"/></clipPath><radialGradient id="radial-gradient-40" cx="480.21" cy="66.57" r="9.88" gradientTransform="matrix(1, -0.09, -0.09, -1, 541.04, 715.76)" xlink:href="#radial-gradient"/><radialGradient id="radial-gradient-41" cx="623.93" cy="149.69" r="9.88" gradientTransform="matrix(1, -0.09, -0.09, -1, 346.62, 939.83)" xlink:href="#radial-gradient"/><radialGradient id="radial-gradient-42" cx="221.14" cy="79.39" r="9.89" gradientTransform="matrix(1, -0.09, -0.09, -1, 346.62, 939.83)" xlink:href="#radial-gradient"/><radialGradient id="radial-gradient-43" cx="199.57" cy="254.44" r="9.87" gradientTransform="matrix(1, -0.09, -0.09, -1, 346.62, 939.83)" xlink:href="#radial-gradient"/><radialGradient id="radial-gradient-44" cx="-29.28" cy="156.22" r="9.88" gradientTransform="matrix(1, -0.09, -0.09, -1, 346.62, 939.83)" xlink:href="#radial-gradient"/><clipPath id="clip-path-103" transform="translate(1.5 250.2)"><rect class="cls-2" x="596.43" y="-168.05" width="1400" height="980"/></clipPath><radialGradient id="radial-gradient-45" cx="274.8" cy="184.64" r="9.88" gradientTransform="matrix(1, -0.09, -0.09, -1, 943.05, 771.78)" xlink:href="#radial-gradient"/><radialGradient id="radial-gradient-46" cx="40.93" cy="154.13" r="9.89" gradientTransform="matrix(1, -0.09, -0.09, -1, 346.62, 939.83)" xlink:href="#radial-gradient"/><radialGradient id="radial-gradient-47" cx="-173.99" cy="179.98" r="17.28" gradientTransform="matrix(1, -0.09, -0.09, -1, 346.62, 939.83)" xlink:href="#radial-gradient"/><radialGradient id="radial-gradient-48" cx="-216.27" cy="203.84" r="17.27" gradientTransform="matrix(1, -0.09, -0.09, -1, 346.62, 939.83)" xlink:href="#radial-gradient"/><radialGradient id="radial-gradient-49" cx="-74.73" cy="218.19" r="17.27" gradientTransform="matrix(1, -0.09, -0.09, -1, 346.62, 939.83)" xlink:href="#radial-gradient"/><radialGradient id="radial-gradient-50" cx="-116.55" cy="177.82" r="9.89" gradientTransform="matrix(1, -0.09, -0.09, -1, 346.62, 939.83)" xlink:href="#radial-gradient"/><radialGradient id="radial-gradient-51" cx="810.87" cy="63.66" r="9.89" gradientTransform="matrix(1, -0.09, -0.09, -1, 346.62, 939.83)" xlink:href="#radial-gradient"/><radialGradient id="radial-gradient-52" cx="975.77" cy="17.18" r="9.89" gradientTransform="matrix(1, -0.09, -0.09, -1, 346.62, 939.83)" xlink:href="#radial-gradient"/><radialGradient id="radial-gradient-53" cx="967.26" cy="129.75" r="9.89" gradientTransform="matrix(1, -0.09, -0.09, -1, 346.62, 939.83)" xlink:href="#radial-gradient"/><radialGradient id="radial-gradient-54" cx="1014.96" cy="112.05" r="9.88" gradientTransform="matrix(1, -0.09, -0.09, -1, 346.62, 939.83)" xlink:href="#radial-gradient"/><radialGradient id="radial-gradient-55" cx="-132.69" cy="144.67" r="9.89" gradientTransform="matrix(1, -0.09, -0.09, -1, 346.62, 939.83)" xlink:href="#radial-gradient"/><radialGradient id="radial-gradient-56" cx="-306.9" cy="123.22" r="9.88" gradientTransform="matrix(1, -0.09, -0.09, -1, 346.62, 939.83)" xlink:href="#radial-gradient"/><radialGradient id="radial-gradient-57" cx="-196.27" cy="251.19" r="9.88" gradientTransform="matrix(1, -0.09, -0.09, -1, 346.62, 939.83)" xlink:href="#radial-gradient"/><radialGradient id="radial-gradient-58" cx="899.27" cy="129.85" r="17.25" gradientTransform="matrix(1, -0.09, -0.09, -1, 346.62, 939.83)" xlink:href="#radial-gradient"/><radialGradient id="radial-gradient-59" cx="1104.2" cy="342.2" r="90.89" gradientTransform="matrix(1, 0, 0, -1, 0, 980)" gradientUnits="userSpaceOnUse"><stop offset="0" stop-color="#fff" stop-opacity="0"/><stop offset="0.86" stop-color="#fff" stop-opacity="0.86"/><stop offset="1" stop-color="#fff"/></radialGradient><clipPath id="clip-path-204" transform="translate(1.5 250.2)"><rect class="cls-2" x="-56.02" y="13.18" width="1400" height="980"/></clipPath><radialGradient id="radial-gradient-60" cx="1223.4" cy="130.8" r="90.81" gradientTransform="matrix(1, 0, 0, -1, -56.02, 993.18)" xlink:href="#radial-gradient-59"/><radialGradient id="radial-gradient-61" cx="85" cy="511" r="68.11" xlink:href="#radial-gradient-59"/><radialGradient id="radial-gradient-62" cx="158.17" cy="570.15" r="68.11" xlink:href="#radial-gradient-59"/><radialGradient id="radial-gradient-63" cx="354.2" cy="300.2" r="68.16" xlink:href="#radial-gradient-59"/><clipPath id="clip-path-207" transform="translate(1.5 250.2)"><rect class="cls-2" x="158.17" y="369.06" width="1400" height="980"/></clipPath><radialGradient id="radial-gradient-64" cx="283.7" cy="415.2" r="102.25" gradientTransform="matrix(1, 0, 0, -1, 158.17, 1349.06)" xlink:href="#radial-gradient-59"/><radialGradient id="radial-gradient-65" cx="98.2" cy="356.2" r="59.06" xlink:href="#radial-gradient-59"/><radialGradient id="radial-gradient-66" cx="1302" cy="401.6" r="83.25" xlink:href="#radial-gradient-59"/><clipPath id="clip-path-210" transform="translate(1.5 250.2)"><rect class="cls-2" x="-60.96" y="-13.18" width="1400" height="980"/></clipPath><radialGradient id="radial-gradient-67" cx="1064" cy="497.6" r="65.06" gradientTransform="matrix(1, 0, 0, -1, -60.96, 966.82)" xlink:href="#radial-gradient-59"/><radialGradient id="radial-gradient-68" cx="387.8" cy="562.2" r="48" xlink:href="#radial-gradient-59"/><radialGradient id="radial-gradient-69" cx="1253" cy="494.88" r="110.52" xlink:href="#radial-gradient-59"/><radialGradient id="radial-gradient-70" cx="1074" cy="688.91" r="110.52" xlink:href="#radial-gradient-59"/><radialGradient id="radial-gradient-71" cx="1881.99" cy="336.84" r="42.39" gradientTransform="matrix(-0.03, -1, -1.08, 0.03, 1799.03, 2781.39)" gradientUnits="userSpaceOnUse"><stop offset="0" stop-color="#fff"/><stop offset="1" stop-color="#fff" stop-opacity="0"/></radialGradient><radialGradient id="radial-gradient-72" cx="591.47" cy="413.66" r="32.68" gradientTransform="matrix(-0.03, -1, -1.08, 0.03, 557.46, 1412.28)" xlink:href="#radial-gradient-71"/><clipPath id="clip-path-215" transform="translate(1.5 250.2)"><rect class="cls-2" x="219.34" y="-319.9" width="1400" height="980"/></clipPath><radialGradient id="radial-gradient-73" cx="727.8" cy="441.2" r="77.2" gradientTransform="matrix(1, 0, 0, -1, 219.34, 660.1)" xlink:href="#radial-gradient-59"/><clipPath id="clip-path-216" transform="translate(1.5 250.2)"><rect class="cls-2" x="707.62" y="-296.11" width="1400" height="980"/></clipPath><radialGradient id="radial-gradient-74" cx="535.17" cy="670.71" r="48" gradientTransform="matrix(1, 0, 0, -1, 707.62, 683.89)" xlink:href="#radial-gradient-59"/><radialGradient id="radial-gradient-75" cx="399.58" cy="574.2" r="48" gradientTransform="matrix(1, 0, 0, -1, 707.62, 683.89)" xlink:href="#radial-gradient-59"/><radialGradient id="radial-gradient-76" cx="-601.42" cy="524.42" r="48" gradientTransform="matrix(1, 0, 0, -1, 707.62, 683.89)" xlink:href="#radial-gradient-59"/><clipPath id="clip-path-217" transform="translate(1.5 250.2)"><rect class="cls-2" x="-348.91" y="-260.57" width="1400" height="980"/></clipPath><radialGradient id="radial-gradient-77" cx="414.99" cy="134.17" r="13.2" gradientTransform="matrix(1, -0.09, -0.09, -1, -2.29, 679.26)" xlink:href="#radial-gradient"/><clipPath id="clip-path-218" transform="translate(1.5 250.2)"><rect class="cls-2" x="318.62" y="-250.2" width="1400" height="980"/></clipPath><radialGradient id="radial-gradient-78" cx="418.25" cy="225.4" r="9.88" gradientTransform="matrix(1, -0.09, -0.09, -1, 665.24, 689.63)" xlink:href="#radial-gradient"/><clipPath id="clip-path-220" transform="translate(1.5 250.2)"><rect class="cls-2" x="-222.43" y="-14.83" width="1400" height="980"/></clipPath><clipPath id="clip-path-221" transform="translate(1.5 250.2)"><rect class="cls-2" x="-2" width="1400" height="980"/></clipPath><clipPath id="clip-path-222" transform="translate(1.5 250.2)"><rect class="cls-2" x="-167.25" y="-156.06" width="1400" height="980"/></clipPath><radialGradient id="radial-gradient-79" cx="387.8" cy="562.2" r="48" gradientTransform="matrix(1, 0, 0, -1, -167.25, 823.94)" xlink:href="#radial-gradient-59"/><linearGradient id="linear-gradient-4" x1="701.5" y1="126.86" x2="701.5" gradientUnits="userSpaceOnUse"><stop offset="0.02" stop-color="#222322"/><stop offset="0.45" stop-color="#2a2b2a"/><stop offset="1" stop-color="#3c3c3c"/></linearGradient><radialGradient id="radial-gradient-80" cx="500" cy="715.61" r="48" gradientTransform="matrix(1, 0, 0, -1, 707.62, 683.89)" xlink:href="#radial-gradient-59"/></defs><title>fireflies-web-mod</title><rect id="ee-background" class="cls-3" x="1.5" y="250.2" width="1400" height="980"/><g class="cls-4"><path class="cls-5" d="M-1-125.86H1399V1022.19H-1Z" transform="translate(1.5 250.2)"/></g><rect class="cls-1" x="0.5" y="124.34" width="1400" height="1148.05"/><g class="cls-6"><path class="cls-7" d="M646,804.6c-.2,2.8-1.5,5-2.9,4.9s-2.3-2.5-2-5.3,3.1-6.2,3.1-6.2S646.2,801.8,646,804.6Z" transform="translate(1.5 250.2)"/></g><g class="cls-6"><path class="cls-7" d="M646.2,812.7c-2.4-.6-4.2-2.1-3.9-3.3s2.5-1.7,5-1.1,5.1,3.7,5.1,3.7S648.7,813.3,646.2,812.7Z" transform="translate(1.5 250.2)"/></g><g class="cls-6"><path class="cls-7" d="M289.6,934.8s1.7-88.1,105-159.3c0,0-82.5,30.5-121.4,159.3Z" transform="translate(1.5 250.2)"/></g><g class="cls-6"><path class="cls-7" d="M396.2,771.7c-.2,2.8-1.5,5-2.9,4.9s-2.3-2.5-2-5.3,3.1-6.2,3.1-6.2S396.5,768.9,396.2,771.7Z" transform="translate(1.5 250.2)"/></g><g class="cls-6"><path class="cls-7" d="M396.5,779.8c-2.4-.6-4.2-2.1-3.9-3.3s2.5-1.7,5-1.1,5.1,3.7,5.1,3.7S398.9,780.4,396.5,779.8Z" transform="translate(1.5 250.2)"/></g><g class="cls-6"><path class="cls-7" d="M212.6,922.6s-48.7-94.1-10.5-211.5c0,0-45.4,65.8-2,218.1Z" transform="translate(1.5 250.2)"/></g><g class="cls-6"><path class="cls-7" d="M201.1,706.4c1.4,3.1,1.7,5.9.6,6.3s-3.1-1.7-4.5-4.7-1.2-7.9-1.2-7.9S199.7,703.3,201.1,706.4Z" transform="translate(1.5 250.2)"/></g><g class="cls-6"><path class="cls-7" d="M205.9,714.9c-2.2.3-4.3-.5-4.8-1.9s1-2.8,3.2-3.1,5.9,1.8,5.9,1.8S208.1,714.6,205.9,714.9Z" transform="translate(1.5 250.2)"/></g><g class="cls-6"><path class="cls-7" d="M1079.7,740.1c.4,3.2-.2,5.8-1.3,5.9s-2.4-2.4-2.8-5.6,1.2-7.5,1.2-7.5S1079.3,737,1079.7,740.1Z" transform="translate(1.5 250.2)"/></g><g class="cls-6"><path class="cls-7" d="M1081.6,749.2c-2.1-.3-3.8-1.7-3.8-3.1s1.7-2.2,3.8-1.9,4.8,3.4,4.8,3.4S1083.7,749.6,1081.6,749.2Z" transform="translate(1.5 250.2)"/></g><g class="cls-6"><path class="cls-7" d="M1316.7,741.6c.4,3.2-.2,5.8-1.3,5.9s-2.4-2.4-2.8-5.6,1.2-7.5,1.2-7.5S1316.3,738.5,1316.7,741.6Z" transform="translate(1.5 250.2)"/></g><g class="cls-6"><path class="cls-7" d="M1318.6,750.7c-2.1-.3-3.8-1.7-3.8-3.1s1.7-2.2,3.8-1.9,4.8,3.4,4.8,3.4S1320.7,751.1,1318.6,750.7Z" transform="translate(1.5 250.2)"/></g><g class="cls-6"><path class="cls-7" d="M423.5,782.3c2.8-.4,5.2.3,5.4,1.7s-1.9,2.8-4.6,3.2-6.8-1.6-6.8-1.6S420.8,782.7,423.5,782.3Z" transform="translate(1.5 250.2)"/></g><g class="cls-6"><path class="cls-7" d="M431.4,780.1c0,2.5-1,4.5-2.3,4.5s-2.2-2.1-2.2-4.6,2.4-5.8,2.4-5.8S431.4,777.6,431.4,780.1Z" transform="translate(1.5 250.2)"/></g><g class="cls-6"><path class="cls-7" d="M891,759.7c3.2-.5,6,.4,6.2,1.9s-2.2,3.2-5.4,3.7-7.8-1.8-7.8-1.8S887.8,760.2,891,759.7Z" transform="translate(1.5 250.2)"/></g><g class="cls-6"><path class="cls-7" d="M900.1,757.2c0,2.9-1.2,5.3-2.6,5.2s-2.5-2.4-2.5-5.3,2.8-6.7,2.8-6.7S900.1,754.3,900.1,757.2Z" transform="translate(1.5 250.2)"/></g><g class="cls-6"><path class="cls-7" d="M1159.4,780.3c2.5-.4,4.7.3,4.9,1.5s-1.7,2.5-4.2,2.9-6.1-1.4-6.1-1.4S1156.9,780.7,1159.4,780.3Z" transform="translate(1.5 250.2)"/></g><g class="cls-6"><path class="cls-7" d="M1166.5,778.4c0,2.3-.9,4.1-2,4.1s-2-1.9-2-4.1,2.2-5.2,2.2-5.2S1166.5,776.1,1166.5,778.4Z" transform="translate(1.5 250.2)"/></g><g class="cls-6"><path class="cls-7" d="M68.2,937.7C58,854.7,46.1,779.4,33.9,749.2l2.3-1.3c12.3,30.6,24.4,106.7,34.6,190.3Z" transform="translate(1.5 250.2)"/></g><g class="cls-6"><path class="cls-7" d="M46.3,749.3a16.54,16.54,0,0,1,10.6-2.8S54.8,753,50,756.6s-9.3,5.5-10.6,2.8S41.5,752.8,46.3,749.3Z" transform="translate(1.5 250.2)"/></g><g class="cls-6"><path class="cls-7" d="M34.5,736.6a22.88,22.88,0,0,1,6-10.9,26.75,26.75,0,0,1,.9,13c-1.4,6.6-3.5,11.6-6,10.9S33,743.2,34.5,736.6Z" transform="translate(1.5 250.2)"/></g><g class="cls-6"><path class="cls-7" d="M25.6,749.1c-5.3-2.4-8.3-8.4-8.3-8.4s5.6-2,10.9.4,9.3,5.5,8.3,8.4S30.9,751.6,25.6,749.1Z" transform="translate(1.5 250.2)"/></g><g class="cls-6"><path class="cls-7" d="M49.1,762a16.54,16.54,0,0,1,10.6-2.8s-2.1,6.5-6.9,10.1-9.3,5.5-10.6,2.8S44.2,765.5,49.1,762Z" transform="translate(1.5 250.2)"/></g><g class="cls-6"><path class="cls-7" d="M52.9,775.8A16.54,16.54,0,0,1,63.5,773s-2.1,6.5-6.9,10.1-9.3,5.5-10.6,2.8S48.1,779.4,52.9,775.8Z" transform="translate(1.5 250.2)"/></g><g class="cls-6"><path class="cls-7" d="M56,791.3a16.54,16.54,0,0,1,10.6-2.8s-2.1,6.5-6.9,10.1-9.3,5.5-10.6,2.8S51.1,794.8,56,791.3Z" transform="translate(1.5 250.2)"/></g><g class="cls-6"><path class="cls-7" d="M59.3,807.4a16.54,16.54,0,0,1,10.6-2.8s-2.1,6.5-6.9,10.1-9.3,5.5-10.6,2.8S54.5,811,59.3,807.4Z" transform="translate(1.5 250.2)"/></g><g class="cls-6"><path class="cls-7" d="M28.8,756.2c-5.7-.1-10.3,4.1-10.3,4.1s4.6,4.3,10.3,4.4,10.3-1,10.3-4.1S34.5,756.3,28.8,756.2Z" transform="translate(1.5 250.2)"/></g><g class="cls-6"><path class="cls-7" d="M32,768.3c-5.7-.1-10.3,4.1-10.3,4.1s4.6,4.3,10.3,4.4,10.3-1,10.3-4.1S37.7,768.4,32,768.3Z" transform="translate(1.5 250.2)"/></g><g class="cls-6"><path class="cls-7" d="M35.4,782.7c-5.7-.1-10.3,4.1-10.3,4.1s4.6,4.3,10.3,4.4,10.3-1,10.3-4.1S41.1,782.8,35.4,782.7Z" transform="translate(1.5 250.2)"/></g><g class="cls-6"><path class="cls-7" d="M38.8,796.8c-5.7-.1-10.3,4.1-10.3,4.1s4.6,4.3,10.3,4.4,10.3-1,10.3-4.1S44.5,796.8,38.8,796.8Z" transform="translate(1.5 250.2)"/></g><g class="cls-6"><path class="cls-7" d="M41.9,812.6c-5.7-.1-10.3,4.1-10.3,4.1s4.6,4.3,10.3,4.4,10.3-1,10.3-4.1S47.6,812.7,41.9,812.6Z" transform="translate(1.5 250.2)"/></g><g class="cls-6"><path class="cls-7" d="M1210.3,920.8c10-81.5,21.7-155.3,33.6-185l-2.3-1.3c-12.1,30-23.9,104.6-33.9,186.8Z" transform="translate(1.5 250.2)"/></g><g class="cls-6"><path class="cls-7" d="M1231.7,735.9a15.56,15.56,0,0,0-10.4-2.7s2,6.4,6.8,9.9,9.1,5.4,10.4,2.7S1236.4,739.4,1231.7,735.9Z" transform="translate(1.5 250.2)"/></g><g class="cls-6"><path class="cls-7" d="M1243.4,723.5a22.53,22.53,0,0,0-5.9-10.7,25.67,25.67,0,0,0-.9,12.7c1.4,6.5,3.4,11.4,5.9,10.7S1244.7,729.9,1243.4,723.5Z" transform="translate(1.5 250.2)"/></g><g class="cls-6"><path class="cls-7" d="M1252,735.8c5.2-2.4,8.2-8.2,8.2-8.2s-5.5-2-10.7.4-9.1,5.4-8.2,8.2S1246.8,738.1,1252,735.8Z" transform="translate(1.5 250.2)"/></g><g class="cls-6"><path class="cls-7" d="M1229,748.3a15.56,15.56,0,0,0-10.4-2.7s2,6.4,6.8,9.9,9.1,5.4,10.4,2.7S1233.8,751.8,1229,748.3Z" transform="translate(1.5 250.2)"/></g><g class="cls-6"><path class="cls-7" d="M1225.2,761.9a15.56,15.56,0,0,0-10.4-2.7s2,6.4,6.8,9.9,9.1,5.4,10.4,2.7S1230,765.4,1225.2,761.9Z" transform="translate(1.5 250.2)"/></g><g class="cls-6"><path class="cls-7" d="M1222.2,777.1a15.56,15.56,0,0,0-10.4-2.7s2,6.4,6.8,9.9,9.1,5.4,10.4,2.7S1227,780.6,1222.2,777.1Z" transform="translate(1.5 250.2)"/></g><g class="cls-6"><path class="cls-7" d="M1218.9,793a15.56,15.56,0,0,0-10.4-2.7s2,6.4,6.8,9.9,9.1,5.4,10.4,2.7S1223.7,796.5,1218.9,793Z" transform="translate(1.5 250.2)"/></g><g class="cls-6"><path class="cls-7" d="M1248.9,742.7c5.6-.1,10.1,4.1,10.1,4.1s-4.5,4.2-10.1,4.3-10.1-1-10.1-4.1S1243.3,742.8,1248.9,742.7Z" transform="translate(1.5 250.2)"/></g><g class="cls-6"><path class="cls-7" d="M1245.7,754.6c5.6-.1,10.1,4.1,10.1,4.1s-4.5,4.2-10.1,4.3-10.1-1-10.1-4.1S1240.2,754.7,1245.7,754.6Z" transform="translate(1.5 250.2)"/></g><g class="cls-6"><path class="cls-7" d="M1242.4,768.7c5.6-.1,10.1,4.1,10.1,4.1s-4.5,4.2-10.1,4.3-10.1-1-10.1-4.1S1236.8,768.8,1242.4,768.7Z" transform="translate(1.5 250.2)"/></g><g class="cls-6"><path class="cls-7" d="M1239.1,782.5c5.6-.1,10.1,4.1,10.1,4.1s-4.5,4.2-10.1,4.3-10.1-1-10.1-4.1S1233.5,782.6,1239.1,782.5Z" transform="translate(1.5 250.2)"/></g><g class="cls-6"><path class="cls-7" d="M1236,798c5.6-.1,10.1,4.1,10.1,4.1s-4.5,4.2-10.1,4.3-10.1-1-10.1-4.1S1230.4,798.1,1236,798Z" transform="translate(1.5 250.2)"/></g><g class="cls-6"><path class="cls-7" d="M995.3,921.2c10-81.5,21.7-155.3,33.6-185l-2.3-1.3c-12.1,30-23.9,104.6-33.9,186.8Z" transform="translate(1.5 250.2)"/></g><g class="cls-6"><path class="cls-7" d="M1016.8,736.4a15.56,15.56,0,0,0-10.4-2.7s2,6.4,6.8,9.9,9.1,5.4,10.4,2.7S1021.5,739.9,1016.8,736.4Z" transform="translate(1.5 250.2)"/></g><g class="cls-6"><path class="cls-7" d="M1028.4,724a22.53,22.53,0,0,0-5.9-10.7,25.67,25.67,0,0,0-.9,12.7c1.4,6.5,3.4,11.4,5.9,10.7S1029.8,730.4,1028.4,724Z" transform="translate(1.5 250.2)"/></g><g class="cls-6"><path class="cls-7" d="M1037.1,736.2c5.2-2.4,8.2-8.2,8.2-8.2s-5.5-2-10.7.4-9.1,5.4-8.2,8.2S1031.9,738.6,1037.1,736.2Z" transform="translate(1.5 250.2)"/></g><g class="cls-6"><path class="cls-7" d="M1014.1,748.8a15.56,15.56,0,0,0-10.4-2.7s2,6.4,6.8,9.9,9.1,5.4,10.4,2.7S1018.8,752.3,1014.1,748.8Z" transform="translate(1.5 250.2)"/></g><g class="cls-6"><path class="cls-7" d="M1010.3,762.4a15.56,15.56,0,0,0-10.4-2.7s2,6.4,6.8,9.9,9.1,5.4,10.4,2.7S1015.1,765.9,1010.3,762.4Z" transform="translate(1.5 250.2)"/></g><g class="cls-6"><path class="cls-7" d="M1007.3,777.6a15.56,15.56,0,0,0-10.4-2.7s2,6.4,6.8,9.9,9.1,5.4,10.4,2.7S1012,781.1,1007.3,777.6Z" transform="translate(1.5 250.2)"/></g><g class="cls-6"><path class="cls-7" d="M1004,793.5a15.56,15.56,0,0,0-10.4-2.7s2,6.4,6.8,9.9,9.1,5.4,10.4,2.7S1008.8,796.9,1004,793.5Z" transform="translate(1.5 250.2)"/></g><g class="cls-6"><path class="cls-7" d="M1033.9,743.2c5.6-.1,10.1,4.1,10.1,4.1s-4.5,4.2-10.1,4.3-10.1-1-10.1-4.1S1028.3,743.3,1033.9,743.2Z" transform="translate(1.5 250.2)"/></g><g class="cls-6"><path class="cls-7" d="M1030.8,755.1c5.6-.1,10.1,4.1,10.1,4.1s-4.5,4.2-10.1,4.3-10.1-1-10.1-4.1S1025.2,755.2,1030.8,755.1Z" transform="translate(1.5 250.2)"/></g><g class="cls-6"><path class="cls-7" d="M1027.5,769.2c5.6-.1,10.1,4.1,10.1,4.1s-4.5,4.2-10.1,4.3-10.1-1-10.1-4.1S1021.9,769.3,1027.5,769.2Z" transform="translate(1.5 250.2)"/></g><g class="cls-6"><path class="cls-7" d="M1024.2,783c5.6-.1,10.1,4.1,10.1,4.1s-4.5,4.2-10.1,4.3-10.1-1-10.1-4.1S1018.6,783.1,1024.2,783Z" transform="translate(1.5 250.2)"/></g><g class="cls-6"><path class="cls-7" d="M1021.1,798.5c5.6-.1,10.1,4.1,10.1,4.1s-4.5,4.2-10.1,4.3-10.1-1-10.1-4.1S1015.5,798.6,1021.1,798.5Z" transform="translate(1.5 250.2)"/></g><g class="cls-8"><path class="cls-9" d="M1091.6,380a19.8,19.8,0,1,1-19.8-19.8A19.8,19.8,0,0,1,1091.6,380Z" transform="translate(1.5 250.2)"/></g><g class="cls-10"><path class="cls-11" d="M318.46,633a19.8,19.8,0,1,1-19.8-19.8A19.8,19.8,0,0,1,318.46,633Z" transform="translate(1.5 250.2)"/></g><g class="cls-12"><path class="cls-13" d="M384.52,588.21a19.8,19.8,0,1,1-19.8-19.8A19.79,19.79,0,0,1,384.52,588.21Z" transform="translate(1.5 250.2)"/></g><g class="cls-14"><path class="cls-15" d="M1062.86,555.32a19.8,19.8,0,1,1-19.8-19.8A19.8,19.8,0,0,1,1062.86,555.32Z" transform="translate(1.5 250.2)"/></g><g class="cls-6"><path class="cls-16" d="M1383.8,836.1a8.7,8.7,0,1,1-8.7-8.7A8.71,8.71,0,0,1,1383.8,836.1Z" transform="translate(1.5 250.2)"/></g><g class="cls-6"><path class="cls-17" d="M1037.6,685.4a19.8,19.8,0,1,1-19.8-19.8A19.79,19.79,0,0,1,1037.6,685.4Z" transform="translate(1.5 250.2)"/></g><g class="cls-6"><path class="cls-18" d="M1292.5,670.4a19.79,19.79,0,0,1-19.8,19.8h0a19.79,19.79,0,0,1-19.8-19.8h0a19.79,19.79,0,0,1,19.8-19.8h0a19.79,19.79,0,0,1,19.8,19.8Z" transform="translate(1.5 250.2)"/></g><g class="cls-6"><path class="cls-19" d="M103.3,646.1a13.7,13.7,0,0,1-13.7,13.7h0a13.7,13.7,0,0,1-13.7-13.7h0a13.7,13.7,0,0,1,13.7-13.7h0a13.7,13.7,0,0,1,13.7,13.7Z" transform="translate(1.5 250.2)"/></g><g class="cls-20"><path class="cls-21" d="M1168.94,174.2a6.1,6.1,0,1,1-6.1-6.1A6.1,6.1,0,0,1,1168.94,174.2Z" transform="translate(1.5 250.2)"/></g><g class="cls-22"><path class="cls-23" d="M301.94,139.25a6.1,6.1,0,1,1-6.1-6.1A6.1,6.1,0,0,1,301.94,139.25Z" transform="translate(1.5 250.2)"/></g><g class="cls-6"><path class="cls-24" d="M1262.2,768.7a19.79,19.79,0,0,1-19.8,19.8h0a19.79,19.79,0,0,1-19.8-19.8h0a19.79,19.79,0,0,1,19.8-19.8h0a19.79,19.79,0,0,1,19.8,19.8Z" transform="translate(1.5 250.2)"/></g><g class="cls-6"><path class="cls-25" d="M1193.2,732.7a14,14,0,1,1-14-14A14,14,0,0,1,1193.2,732.7Z" transform="translate(1.5 250.2)"/></g><g class="cls-26"><path class="cls-27" d="M297.78,436.69a15.7,15.7,0,0,1-15.7,15.7h0a15.7,15.7,0,0,1-15.7-15.7h0a15.7,15.7,0,0,1,15.7-15.7h0a15.7,15.7,0,0,1,15.7,15.7Z" transform="translate(1.5 250.2)"/></g><g class="cls-28"><path class="cls-29" d="M1135.91,626.73a15.7,15.7,0,0,1-15.7,15.7h0a15.7,15.7,0,0,1-15.7-15.7h0a15.7,15.7,0,0,1,15.7-15.7h0a15.7,15.7,0,0,1,15.7,15.7Z" transform="translate(1.5 250.2)"/></g><g class="cls-30"><path class="cls-31" d="M296.94,334.15a15.7,15.7,0,0,1-15.7,15.7h0a15.7,15.7,0,0,1-15.7-15.7h0a15.7,15.7,0,0,1,15.7-15.7h0a15.7,15.7,0,0,1,15.7,15.7Z" transform="translate(1.5 250.2)"/></g><g class="cls-32"><path class="cls-33" d="M1157,378.68a15.7,15.7,0,0,1-15.7,15.7h0a15.7,15.7,0,0,1-15.7-15.7h0a15.7,15.7,0,0,1,15.7-15.7h0a15.7,15.7,0,0,1,15.7,15.7Z" transform="translate(1.5 250.2)"/></g><g class="cls-34"><path class="cls-35" d="M1151.45,526.77a15.1,15.1,0,1,1-15.1-15.1A15.1,15.1,0,0,1,1151.45,526.77Z" transform="translate(1.5 250.2)"/></g><g class="cls-36"><path class="cls-37" d="M380.26,258.69a15.1,15.1,0,1,1-15.1-15.1A15.1,15.1,0,0,1,380.26,258.69Z" transform="translate(1.5 250.2)"/></g><g class="cls-38"><path class="cls-39" d="M350.32,663a8.5,8.5,0,0,1-8.5,8.5h0a8.51,8.51,0,0,1-8.5-8.5h0a8.5,8.5,0,0,1,17,0Z" transform="translate(1.5 250.2)"/></g><g class="cls-40"><path class="cls-41" d="M320.39,275.47a11,11,0,0,1-11,11h0a11,11,0,0,1-11-11h0a11,11,0,0,1,22,0Z" transform="translate(1.5 250.2)"/></g><g class="cls-42"><path class="cls-43" d="M1036.71,436.25a11.3,11.3,0,1,1-11.3-11.3A11.3,11.3,0,0,1,1036.71,436.25Z" transform="translate(1.5 250.2)"/></g><g class="cls-6"><path class="cls-44" d="M421.9,677.6a11.3,11.3,0,1,1-11.3-11.3A11.3,11.3,0,0,1,421.9,677.6Z" transform="translate(1.5 250.2)"/></g><g class="cls-45"><path class="cls-46" d="M336.92,370.76a7.8,7.8,0,1,1-7.8-7.8A7.8,7.8,0,0,1,336.92,370.76Z" transform="translate(1.5 250.2)"/></g><g class="cls-47"><path class="cls-48" d="M1124.21,436.15a11.3,11.3,0,1,1-11.3-11.3A11.3,11.3,0,0,1,1124.21,436.15Z" transform="translate(1.5 250.2)"/></g><g class="cls-49"><path class="cls-50" d="M1165.94,324.77a12.59,12.59,0,1,1,12.59,12.59A12.59,12.59,0,0,1,1165.94,324.77Z" transform="translate(1.5 250.2)"/></g><g class="cls-6"><path class="cls-51" d="M421.3,747A11.3,11.3,0,1,1,410,735.7,11.3,11.3,0,0,1,421.3,747Z" transform="translate(1.5 250.2)"/></g><g class="cls-6"><path class="cls-52" d="M276.4,841.1a11.3,11.3,0,1,1-11.3-11.3A11.3,11.3,0,0,1,276.4,841.1Z" transform="translate(1.5 250.2)"/></g><g class="cls-6"><path class="cls-53" d="M486.8,740.6A19.8,19.8,0,1,1,467,720.8,19.79,19.79,0,0,1,486.8,740.6Z" transform="translate(1.5 250.2)"/></g><g class="cls-6"><path class="cls-54" d="M455.9,860.6a19.8,19.8,0,1,1-19.8-19.8A19.79,19.79,0,0,1,455.9,860.6Z" transform="translate(1.5 250.2)"/></g><g class="cls-6"><path class="cls-55" d="M440.4,784.7a11.3,11.3,0,1,1-11.3-11.3A11.3,11.3,0,0,1,440.4,784.7Z" transform="translate(1.5 250.2)"/></g><g class="cls-56"><path class="cls-57" d="M307.94,533.66a11.3,11.3,0,1,1-11.3-11.3A11.3,11.3,0,0,1,307.94,533.66Z" transform="translate(1.5 250.2)"/></g><g class="cls-58"><path class="cls-59" d="M965.73,568.25a11.3,11.3,0,1,1-11.3-11.3A11.29,11.29,0,0,1,965.73,568.25Z" transform="translate(1.5 250.2)"/></g><g class="cls-60"><path class="cls-61" d="M281,202.59a11.3,11.3,0,1,1-11.3-11.3A11.3,11.3,0,0,1,281,202.59Z" transform="translate(1.5 250.2)"/></g><g class="cls-62"><path class="cls-63" d="M1106.4,319.87a8.6,8.6,0,1,1-8.6-8.6A8.6,8.6,0,0,1,1106.4,319.87Z" transform="translate(1.5 250.2)"/></g><g class="cls-64"><path class="cls-65" d="M1073.75,484.57a8.6,8.6,0,1,1-8.6-8.6A8.6,8.6,0,0,1,1073.75,484.57Z" transform="translate(1.5 250.2)"/></g><g class="cls-6"><path class="cls-66" d="M930.3,815A11.3,11.3,0,1,1,919,803.7,11.3,11.3,0,0,1,930.3,815Z" transform="translate(1.5 250.2)"/></g><g class="cls-6"><path class="cls-67" d="M979.7,812A14.7,14.7,0,0,1,965,826.7h0A14.7,14.7,0,0,1,950.3,812h0A14.7,14.7,0,0,1,965,797.3h0A14.7,14.7,0,0,1,979.7,812Z" transform="translate(1.5 250.2)"/></g><g class="cls-6"><path class="cls-68" d="M1101.7,822a14.7,14.7,0,1,1-14.7-14.7A14.7,14.7,0,0,1,1101.7,822Z" transform="translate(1.5 250.2)"/></g><g class="cls-69"><path class="cls-70" d="M1116.49,257.22a12.13,12.13,0,1,1-12.13-12.12A12.13,12.13,0,0,1,1116.49,257.22Z" transform="translate(1.5 250.2)"/></g><g class="cls-71"><path class="cls-72" d="M1024.32,605a11.3,11.3,0,1,1-11.3-11.3A11.3,11.3,0,0,1,1024.32,605Z" transform="translate(1.5 250.2)"/></g><g class="cls-6"><path class="cls-73" d="M965.3,733A11.3,11.3,0,1,1,954,721.7,11.3,11.3,0,0,1,965.3,733Z" transform="translate(1.5 250.2)"/></g><g class="cls-6"><path class="cls-74" d="M570.8,840.3A11.3,11.3,0,1,1,559.5,829,11.3,11.3,0,0,1,570.8,840.3Z" transform="translate(1.5 250.2)"/></g><g class="cls-6"><path class="cls-75" d="M533.1,668a11.3,11.3,0,1,1-11.3-11.3A11.3,11.3,0,0,1,533.1,668Z" transform="translate(1.5 250.2)"/></g><g class="cls-6"><path class="cls-76" d="M314.3,787A11.3,11.3,0,1,1,303,775.7,11.3,11.3,0,0,1,314.3,787Z" transform="translate(1.5 250.2)"/></g><g class="cls-77"><path class="cls-78" d="M1210.83,562.45a11.3,11.3,0,1,1-11.3-11.3A11.3,11.3,0,0,1,1210.83,562.45Z" transform="translate(1.5 250.2)"/></g><g class="cls-6"><path class="cls-79" d="M384.4,782.6a11.3,11.3,0,1,1-11.3-11.3A11.3,11.3,0,0,1,384.4,782.6Z" transform="translate(1.5 250.2)"/></g><g class="cls-6"><path class="cls-80" d="M176.5,776.7a19.8,19.8,0,1,1-19.8-19.8A19.79,19.79,0,0,1,176.5,776.7Z" transform="translate(1.5 250.2)"/></g><g class="cls-6"><path class="cls-81" d="M132.2,756.9a19.8,19.8,0,1,1-19.8-19.8A19.79,19.79,0,0,1,132.2,756.9Z" transform="translate(1.5 250.2)"/></g><g class="cls-6"><path class="cls-82" d="M271.8,729.5A19.8,19.8,0,1,1,252,709.7,19.79,19.79,0,0,1,271.8,729.5Z" transform="translate(1.5 250.2)"/></g><g class="cls-6"><path class="cls-83" d="M225.4,773.6a11.3,11.3,0,1,1-11.3-11.3A11.3,11.3,0,0,1,225.4,773.6Z" transform="translate(1.5 250.2)"/></g><g class="cls-6"><path class="cls-84" d="M1159.4,801.3a11.3,11.3,0,0,1-11.3,11.3h0a11.3,11.3,0,0,1-11.3-11.3h0a11.3,11.3,0,0,1,11.3-11.3h0a11.3,11.3,0,0,1,11.3,11.3Z" transform="translate(1.5 250.2)"/></g><g class="cls-6"><path class="cls-85" d="M1327.9,832.3a11.3,11.3,0,0,1-11.3,11.3h0a11.3,11.3,0,0,1-11.3-11.3h0a11.3,11.3,0,0,1,11.3-11.3h0a11.3,11.3,0,0,1,11.3,11.3Z" transform="translate(1.5 250.2)"/></g><g class="cls-6"><path class="cls-86" d="M1309,721a11.3,11.3,0,0,1-11.3,11.3h0a11.3,11.3,0,0,1-11.3-11.3h0a11.3,11.3,0,0,1,11.3-11.3h0A11.3,11.3,0,0,1,1309,721Z" transform="translate(1.5 250.2)"/></g><g class="cls-6"><path class="cls-87" d="M1358.1,734.3a11.3,11.3,0,0,1-11.3,11.3h0a11.3,11.3,0,0,1-11.3-11.3h0a11.3,11.3,0,0,1,11.3-11.3h0a11.3,11.3,0,0,1,11.3,11.3Z" transform="translate(1.5 250.2)"/></g><g class="cls-6"><path class="cls-88" d="M212.4,808.1a11.3,11.3,0,1,1-11.3-11.3A11.3,11.3,0,0,1,212.4,808.1Z" transform="translate(1.5 250.2)"/></g><g class="cls-6"><path class="cls-89" d="M40.9,845.6a11.3,11.3,0,1,1-11.3-11.3A11.3,11.3,0,0,1,40.9,845.6Z" transform="translate(1.5 250.2)"/></g><g class="cls-6"><path class="cls-90" d="M139.2,707.9a11.3,11.3,0,1,1-11.3-11.3A11.3,11.3,0,0,1,139.2,707.9Z" transform="translate(1.5 250.2)"/></g><g class="cls-6"><path d="M256.6,954.8s40.1-126.6,73-136.5c0,0-41-7-91,131.6Z" transform="translate(1.5 250.2)"/></g><g class="cls-6"><path d="M1098.6,958.8s40.1-126.6,73-136.5c0,0-41-7-91,131.6Z" transform="translate(1.5 250.2)"/></g><g class="cls-6"><path d="M298.1,925.5S274.4,826.1,257.5,818c0,0,30.1,113,30.2,132.2s12.4-8.1,12.4-8.1Z" transform="translate(1.5 250.2)"/></g><g class="cls-6"><path d="M201.7,971.2c-6-99.4-45.7-157.5-45.7-157.5,20.4,53.5,37.7,101,39.6,157.5Z" transform="translate(1.5 250.2)"/></g><g class="cls-6"><path d="M28.5,951.7c6-99.4,45.7-157.5,45.7-157.5-20.4,53.5-37.7,101-39.6,157.5Z" transform="translate(1.5 250.2)"/></g><g class="cls-6"><path d="M258.5,940.5S229.5,839,214,819c0,0,34.6,119.1,30.5,132S258.5,940.5,258.5,940.5Z" transform="translate(1.5 250.2)"/></g><g class="cls-6"><path d="M107.7,959s-26-87.3,14.7-159.3c0,0-59.8,77-31.2,162.5Z" transform="translate(1.5 250.2)"/></g><g class="cls-6"><path d="M1259.7,965s-26-87.3,14.7-159.3c0,0-59.8,77-31.2,162.5Z" transform="translate(1.5 250.2)"/></g><g class="cls-6"><path d="M19.2,822.2s44,114.2,36.4,136.1l15-.8C70.5,957.5,57.9,866.8,19.2,822.2Z" transform="translate(1.5 250.2)"/></g><g class="cls-6"><path d="M1045.7,958.3c0-14,32-132.7,84.7-146.7,0,0-89.3,12-102.7,152Z" transform="translate(1.5 250.2)"/></g><g class="cls-6"><path d="M1038.3,947s-48-124.7-88.7-134.7c0,0,72,97.3,76,147.3Z" transform="translate(1.5 250.2)"/></g><g class="cls-6"><path d="M955.2,937.2S939.7,879.7,893,821.7c0,0,66,54,85.3,124Z" transform="translate(1.5 250.2)"/></g><g class="cls-6"><path d="M1247.7,958.3s50-133.3,88-148.7c0,0-43.3-8-108,148Z" transform="translate(1.5 250.2)"/></g><g class="cls-6"><path d="M1208.3,955.7s-10-132-38.7-160c0,0,44,38.7,58,162Z" transform="translate(1.5 250.2)"/></g><g class="cls-6"><path d="M1321,960.3s18.3-87.3,72-140c0,0-70,52.7-91.3,134.7Z" transform="translate(1.5 250.2)"/></g><g class="cls-6"><path d="M1040,972.5s-.5-155,12.5-167.5c0,0-36,77.5-25,160Z" transform="translate(1.5 250.2)"/></g><g class="cls-6"><path class="cls-7" d="M539.4,967.7s1.7-88.1,105-159.3c0,0-82.5,30.5-121.4,159.3Z" transform="translate(1.5 250.2)"/></g><g class="cls-6"><path class="cls-7" d="M1027.9,939.4s-17.1-99.3,51.4-194.8c0,0-60.1,46.6-64.6,197.2Z" transform="translate(1.5 250.2)"/></g><g class="cls-6"><path class="cls-7" d="M1264.9,940.9s-17.1-99.3,51.4-194.8c0,0-60.1,46.6-64.6,197.2Z" transform="translate(1.5 250.2)"/></g><g class="cls-6"><path class="cls-7" d="M994.5,959.6s-36.3-167.4-99.5-199c0,0,72.5,52.1,84.9,220.6Z" transform="translate(1.5 250.2)"/></g><g class="cls-6"><path class="cls-7" d="M1240,935.9s-28.2-130.3-77.4-154.9c0,0,56.4,40.5,66,171.7Z" transform="translate(1.5 250.2)"/></g><g class="cls-6"><path class="cls-7" d="M237.3,954.5c12.6-103.2,27.4-196.6,42.6-234.2l-2.9-1.7c-15.3,38-30.3,132.5-43,236.5Z" transform="translate(1.5 250.2)"/></g><g class="cls-6"><path class="cls-7" d="M264.4,720.5a20.26,20.26,0,0,0-13.2-3.5s2.6,8.1,8.6,12.5,11.5,6.8,13.2,3.5S270.5,724.9,264.4,720.5Z" transform="translate(1.5 250.2)"/></g><g class="cls-6"><path class="cls-7" d="M279.2,704.7a28.58,28.58,0,0,0-7.5-13.5,32.28,32.28,0,0,0-1.1,16.1c1.8,8.2,4.3,14.5,7.5,13.5S281,712.9,279.2,704.7Z" transform="translate(1.5 250.2)"/></g><g class="cls-6"><path class="cls-7" d="M290.2,720.3c6.6-3,10.4-10.4,10.4-10.4s-6.9-2.5-13.5.5-11.5,6.8-10.4,10.4S283.6,723.3,290.2,720.3Z" transform="translate(1.5 250.2)"/></g><g class="cls-6"><path class="cls-7" d="M261.1,736.2a20.26,20.26,0,0,0-13.2-3.5s2.6,8.1,8.6,12.5,11.5,6.8,13.2,3.5S267.1,740.6,261.1,736.2Z" transform="translate(1.5 250.2)"/></g><g class="cls-6"><path class="cls-7" d="M256.2,753.4a20.26,20.26,0,0,0-13.2-3.5s2.6,8.1,8.6,12.5,11.5,6.8,13.2,3.5S262.3,757.8,256.2,753.4Z" transform="translate(1.5 250.2)"/></g><g class="cls-6"><path class="cls-7" d="M252.4,772.7a20.26,20.26,0,0,0-13.2-3.5s2.6,8.1,8.6,12.5,11.5,6.8,13.2,3.5S258.5,777.1,252.4,772.7Z" transform="translate(1.5 250.2)"/></g><g class="cls-6"><path class="cls-7" d="M248.3,792.7a20.26,20.26,0,0,0-13.2-3.5s2.6,8.1,8.6,12.5,11.5,6.8,13.2,3.5S254.3,797.1,248.3,792.7Z" transform="translate(1.5 250.2)"/></g><g class="cls-6"><path class="cls-7" d="M286.2,729.1c7.1-.1,12.8,5.1,12.8,5.1s-5.7,5.4-12.7,5.5-12.8-1.2-12.8-5.1S279.1,729.1,286.2,729.1Z" transform="translate(1.5 250.2)"/></g><g class="cls-6"><path class="cls-7" d="M282.2,744.1c7.1-.1,12.8,5.1,12.8,5.1s-5.7,5.4-12.7,5.5-12.8-1.2-12.8-5.1S275.2,744.2,282.2,744.1Z" transform="translate(1.5 250.2)"/></g><g class="cls-6"><path class="cls-7" d="M278,762c7.1-.1,12.8,5.1,12.8,5.1s-5.7,5.4-12.7,5.5-12.8-1.2-12.8-5.1S270.9,762.1,278,762Z" transform="translate(1.5 250.2)"/></g><g class="cls-6"><path class="cls-7" d="M273.8,779.5c7.1-.1,12.8,5.1,12.8,5.1s-5.7,5.4-12.7,5.5-12.8-1.2-12.8-5.1S266.7,779.6,273.8,779.5Z" transform="translate(1.5 250.2)"/></g><g class="cls-6"><path class="cls-7" d="M269.9,799.1c7.1-.1,12.8,5.1,12.8,5.1s-5.7,5.4-12.7,5.5-12.8-1.2-12.8-5.1S262.8,799.2,269.9,799.1Z" transform="translate(1.5 250.2)"/></g><g class="cls-6"><path class="cls-7" d="M496.2,942.3c13.7-94.3,23.1-180.5,18.7-217.5l3-.8c4.4,37.3-5.1,124.5-18.9,219.6Z" transform="translate(1.5 250.2)"/></g><g class="cls-6"><path class="cls-7" d="M528.6,728.8a18.75,18.75,0,0,1,12.5.1s-4.2,6.5-10.6,9-11.8,3.2-12.5-.1S522.2,731.2,528.6,728.8Z" transform="translate(1.5 250.2)"/></g><g class="cls-6"><path class="cls-7" d="M519.3,711.2a25.64,25.64,0,0,1,9.9-10.1,30.42,30.42,0,0,1-2.9,14.5c-3.5,6.8-7.3,11.8-9.9,10.1C513.9,724.2,515.8,718.1,519.3,711.2Z" transform="translate(1.5 250.2)"/></g><g class="cls-6"><path class="cls-7" d="M505.9,722.4c-5.1-4.3-6.7-11.7-6.7-11.7s6.7-.5,11.8,3.7,8.6,8.8,6.7,11.7S511,726.6,505.9,722.4Z" transform="translate(1.5 250.2)"/></g><g class="cls-6"><path class="cls-7" d="M527.8,743.5a18.75,18.75,0,0,1,12.5.1s-4.2,6.5-10.6,9-11.8,3.2-12.5-.1S521.4,745.9,527.8,743.5Z" transform="translate(1.5 250.2)"/></g><g class="cls-6"><path class="cls-7" d="M527.9,759.9a18.75,18.75,0,0,1,12.5.1s-4.2,6.5-10.6,9-11.8,3.2-12.5-.1S521.5,762.3,527.9,759.9Z" transform="translate(1.5 250.2)"/></g><g class="cls-6"><path class="cls-7" d="M526.6,777.8a18.75,18.75,0,0,1,12.5.1s-4.2,6.5-10.6,9-11.8,3.2-12.5-.1S520.2,780.3,526.6,777.8Z" transform="translate(1.5 250.2)"/></g><g class="cls-6"><path class="cls-7" d="M525.5,796.6a18.75,18.75,0,0,1,12.5.1s-4.2,6.5-10.6,9-11.8,3.2-12.5-.1S519.1,799,525.5,796.6Z" transform="translate(1.5 250.2)"/></g><g class="cls-6"><path class="cls-7" d="M507.3,731.1c-6.2-1.8-12.6,1.5-12.6,1.5s3.7,6.1,10,7.9,11.6,2,12.6-1.5S513.5,732.9,507.3,731.1Z" transform="translate(1.5 250.2)"/></g><g class="cls-6"><path class="cls-7" d="M507.1,745.4c-6.2-1.8-12.6,1.5-12.6,1.5s3.7,6.1,10,7.9,11.6,2,12.6-1.5S513.4,747.2,507.1,745.4Z" transform="translate(1.5 250.2)"/></g><g class="cls-6"><path class="cls-7" d="M506.6,762.2c-6.2-1.8-12.6,1.5-12.6,1.5s3.7,6.1,10,7.9,11.6,2,12.6-1.5S512.8,764,506.6,762.2Z" transform="translate(1.5 250.2)"/></g><g class="cls-6"><path class="cls-7" d="M506.1,778.7c-6.2-1.8-12.6,1.5-12.6,1.5s3.7,6.1,10,7.9,11.6,2,12.6-1.5S512.3,780.5,506.1,778.7Z" transform="translate(1.5 250.2)"/></g><g class="cls-6"><path class="cls-7" d="M504.8,797c-6.2-1.8-12.6,1.5-12.6,1.5s3.7,6.1,10,7.9,11.6,2,12.6-1.5S511,798.8,504.8,797Z" transform="translate(1.5 250.2)"/></g><g class="cls-6"><path class="cls-7" d="M159.7,982.7c-12.1-94.5-20-180.9-15-217.7l-3-.8c-5,37.2,3,124.6,15.2,219.8Z" transform="translate(1.5 250.2)"/></g><g class="cls-6"><path class="cls-7" d="M131,768.7a18.13,18.13,0,0,0-12.5-.1s4.1,6.6,10.5,9.2,11.8,3.4,12.5.1S137.3,771.2,131,768.7Z" transform="translate(1.5 250.2)"/></g><g class="cls-6"><path class="cls-7" d="M140.5,751.3a25.66,25.66,0,0,0-9.7-10.3,30,30,0,0,0,2.6,14.6c3.4,6.9,7.1,11.9,9.7,10.3S143.9,758.2,140.5,751.3Z" transform="translate(1.5 250.2)"/></g><g class="cls-6"><path class="cls-7" d="M153.8,762.7c5.2-4.2,6.8-11.6,6.8-11.6s-6.7-.7-11.9,3.5-8.7,8.6-6.8,11.6S148.6,766.9,153.8,762.7Z" transform="translate(1.5 250.2)"/></g><g class="cls-6"><path class="cls-7" d="M131.5,783.4a18.13,18.13,0,0,0-12.5-.1s4.1,6.6,10.5,9.2,11.8,3.4,12.5.1S137.9,786,131.5,783.4Z" transform="translate(1.5 250.2)"/></g><g class="cls-6"><path class="cls-7" d="M131.1,799.8a18.13,18.13,0,0,0-12.5-.1s4.1,6.6,10.5,9.2,11.8,3.4,12.5.1S137.5,802.4,131.1,799.8Z" transform="translate(1.5 250.2)"/></g><g class="cls-6"><path class="cls-7" d="M132.1,817.8a18.13,18.13,0,0,0-12.5-.1s4.1,6.6,10.5,9.2,11.8,3.4,12.5.1S138.4,820.3,132.1,817.8Z" transform="translate(1.5 250.2)"/></g><g class="cls-6"><path class="cls-7" d="M132.9,836.5a18.13,18.13,0,0,0-12.5-.1s4.1,6.6,10.5,9.2,11.8,3.4,12.5.1S139.3,839.1,132.9,836.5Z" transform="translate(1.5 250.2)"/></g><g class="cls-6"><path class="cls-7" d="M152.2,771.4c6.3-1.7,12.6,1.7,12.6,1.7s-3.8,6.1-10.1,7.7-11.7,1.8-12.6-1.7S146,773.1,152.2,771.4Z" transform="translate(1.5 250.2)"/></g><g class="cls-6"><path class="cls-7" d="M152.1,785.7c6.3-1.7,12.6,1.7,12.6,1.7s-3.8,6.1-10.1,7.7-11.7,1.8-12.6-1.7S145.8,787.4,152.1,785.7Z" transform="translate(1.5 250.2)"/></g><g class="cls-6"><path class="cls-7" d="M152.4,802.5c6.3-1.7,12.6,1.7,12.6,1.7s-3.8,6.1-10.1,7.7-11.7,1.8-12.6-1.7S146.1,804.2,152.4,802.5Z" transform="translate(1.5 250.2)"/></g><g class="cls-6"><path class="cls-7" d="M152.6,819c6.3-1.7,12.6,1.7,12.6,1.7s-3.8,6.1-10.1,7.7-11.7,1.8-12.6-1.7S146.3,820.6,152.6,819Z" transform="translate(1.5 250.2)"/></g><g class="cls-6"><path class="cls-7" d="M153.6,837.3c6.3-1.7,12.6,1.7,12.6,1.7s-3.8,6.1-10.1,7.7-11.7,1.8-12.6-1.7S147.3,839,153.6,837.3Z" transform="translate(1.5 250.2)"/></g><g class="cls-6"><path class="cls-7" d="M1165.7,947.7c-12.6-103.2-27.4-196.6-42.6-234.2l2.9-1.7c15.3,38,30.3,132.5,43,236.5Z" transform="translate(1.5 250.2)"/></g><g class="cls-6"><path class="cls-7" d="M1138.6,713.6a20.26,20.26,0,0,1,13.2-3.5s-2.6,8.1-8.6,12.5-11.5,6.8-13.2,3.5S1132.6,718,1138.6,713.6Z" transform="translate(1.5 250.2)"/></g><g class="cls-6"><path class="cls-7" d="M1123.8,697.8a28.58,28.58,0,0,1,7.5-13.5,32.28,32.28,0,0,1,1.1,16.1c-1.8,8.2-4.3,14.5-7.5,13.5S1122.1,706,1123.8,697.8Z" transform="translate(1.5 250.2)"/></g><g class="cls-6"><path class="cls-7" d="M1112.9,713.4c-6.6-3-10.4-10.4-10.4-10.4s6.9-2.5,13.5.5,11.5,6.8,10.4,10.4S1119.5,716.4,1112.9,713.4Z" transform="translate(1.5 250.2)"/></g><g class="cls-6"><path class="cls-7" d="M1142,729.3a20.26,20.26,0,0,1,13.2-3.5s-2.6,8.1-8.6,12.5-11.5,6.8-13.2,3.5S1136,733.7,1142,729.3Z" transform="translate(1.5 250.2)"/></g><g class="cls-6"><path class="cls-7" d="M1146.8,746.6a20.26,20.26,0,0,1,13.2-3.5s-2.6,8.1-8.6,12.5-11.5,6.8-13.2,3.5S1140.8,751,1146.8,746.6Z" transform="translate(1.5 250.2)"/></g><g class="cls-6"><path class="cls-7" d="M1150.6,765.8a20.26,20.26,0,0,1,13.2-3.5s-2.6,8.1-8.6,12.5-11.5,6.8-13.2,3.5S1144.6,770.2,1150.6,765.8Z" transform="translate(1.5 250.2)"/></g><g class="cls-6"><path class="cls-7" d="M1154.7,785.9a20.26,20.26,0,0,1,13.2-3.5s-2.6,8.1-8.6,12.5-11.5,6.8-13.2,3.5S1148.7,790.3,1154.7,785.9Z" transform="translate(1.5 250.2)"/></g><g class="cls-6"><path class="cls-7" d="M1116.9,722.2c-7.1-.1-12.8,5.1-12.8,5.1s5.7,5.4,12.7,5.5,12.8-1.2,12.8-5.1S1123.9,722.3,1116.9,722.2Z" transform="translate(1.5 250.2)"/></g><g class="cls-6"><path class="cls-7" d="M1120.8,737.3c-7.1-.1-12.8,5.1-12.8,5.1s5.7,5.4,12.7,5.5,12.8-1.2,12.8-5.1S1127.9,737.4,1120.8,737.3Z" transform="translate(1.5 250.2)"/></g><g class="cls-6"><path class="cls-7" d="M1125,755.1c-7.1-.1-12.8,5.1-12.8,5.1s5.7,5.4,12.7,5.5,12.8-1.2,12.8-5.1S1132.1,755.2,1125,755.1Z" transform="translate(1.5 250.2)"/></g><g class="cls-6"><path class="cls-7" d="M1129.2,772.6c-7.1-.1-12.8,5.1-12.8,5.1s5.7,5.4,12.7,5.5,12.8-1.2,12.8-5.1S1136.3,772.7,1129.2,772.6Z" transform="translate(1.5 250.2)"/></g><g class="cls-6"><path class="cls-7" d="M1133.1,792.3c-7.1-.1-12.8,5.1-12.8,5.1s5.7,5.4,12.7,5.5,12.8-1.2,12.8-5.1S1140.2,792.4,1133.1,792.3Z" transform="translate(1.5 250.2)"/></g><g class="cls-6"><path class="cls-7" d="M1307.7,968c21.7-101.6,38.3-194.8,36.2-235.3l3.3-.6c2.1,41-14.7,135.1-36.6,237.6Z" transform="translate(1.5 250.2)"/></g><g class="cls-6"><path class="cls-7" d="M1358.5,738a19.9,19.9,0,0,1,13.6,1.1s-5.1,6.8-12.2,9-13.1,2.6-13.6-1.1S1351.3,740.1,1358.5,738Z" transform="translate(1.5 250.2)"/></g><g class="cls-6"><path class="cls-7" d="M1349.7,718.2a27.66,27.66,0,0,1,11.5-10.3s.1,8.5-4.2,15.6-8.8,12.3-11.5,10.3S1345.3,725.4,1349.7,718.2Z" transform="translate(1.5 250.2)"/></g><g class="cls-6"><path class="cls-7" d="M1334.2,729.3c-5.2-5-6.4-13.2-6.4-13.2s7.4-.1,12.6,4.9,8.7,10.2,6.4,13.2S1339.5,734.4,1334.2,729.3Z" transform="translate(1.5 250.2)"/></g><g class="cls-6"><path class="cls-7" d="M1356.5,753.9a19.9,19.9,0,0,1,13.6,1.1s-5.1,6.8-12.2,9-13.1,2.6-13.6-1.1S1349.4,756.1,1356.5,753.9Z" transform="translate(1.5 250.2)"/></g><g class="cls-6"><path class="cls-7" d="M1355.4,771.8a19.9,19.9,0,0,1,13.6,1.1s-5.1,6.8-12.2,9-13.1,2.6-13.6-1.1S1348.3,774,1355.4,771.8Z" transform="translate(1.5 250.2)"/></g><g class="cls-6"><path class="cls-7" d="M1352.8,791.2a19.9,19.9,0,0,1,13.6,1.1s-5.1,6.8-12.2,9-13.1,2.6-13.6-1.1S1345.6,793.4,1352.8,791.2Z" transform="translate(1.5 250.2)"/></g><g class="cls-6"><path class="cls-7" d="M1350.1,811.5a19.9,19.9,0,0,1,13.6,1.1s-5.1,6.8-12.2,9-13.1,2.7-13.6-1.1S1343,813.7,1350.1,811.5Z" transform="translate(1.5 250.2)"/></g><g class="cls-6"><path class="cls-7" d="M1335.1,739c-6.6-2.4-13.8.7-13.8.7s3.6,6.9,10.3,9.3,12.5,3,13.8-.7S1341.8,741.3,1335.1,739Z" transform="translate(1.5 250.2)"/></g><g class="cls-6"><path class="cls-7" d="M1333.9,754.5c-6.6-2.4-13.8.7-13.8.7s3.6,6.9,10.3,9.3,12.5,3,13.8-.7S1340.6,756.9,1333.9,754.5Z" transform="translate(1.5 250.2)"/></g><g class="cls-6"><path class="cls-7" d="M1332.1,772.8c-6.6-2.4-13.8.7-13.8.7s3.6,6.9,10.3,9.3,12.5,3,13.8-.7S1338.7,775.2,1332.1,772.8Z" transform="translate(1.5 250.2)"/></g><g class="cls-6"><path class="cls-7" d="M1330.3,790.6c-6.6-2.4-13.8.7-13.8.7s3.6,6.9,10.3,9.3,12.5,3,13.8-.7S1337,793,1330.3,790.6Z" transform="translate(1.5 250.2)"/></g><g class="cls-6"><path class="cls-7" d="M1327.6,810.5c-6.6-2.4-13.8.7-13.8.7s3.6,6.9,10.3,9.3,12.5,3,13.8-.7S1334.3,812.9,1327.6,810.5Z" transform="translate(1.5 250.2)"/></g><g class="cls-6"><path class="cls-91" d="M1249.8,727.3a19.79,19.79,0,0,1-19.8,19.8h0a19.79,19.79,0,0,1-19.8-19.8h0a19.79,19.79,0,0,1,19.8-19.8h0a19.79,19.79,0,0,1,19.8,19.8Z" transform="translate(1.5 250.2)"/></g><g class="cls-6"><path class="cls-92" d="M1184.1,637.8a79.9,79.9,0,0,1-79.9,79.9h0a79.9,79.9,0,0,1-79.9-79.9h0a79.9,79.9,0,0,1,79.9-79.9h0a79.9,79.9,0,0,1,79.9,79.9Z" transform="translate(1.5 250.2)"/></g><g class="cls-93"><path class="cls-94" d="M1247.28,862.38a79.9,79.9,0,0,1-79.9,79.9h0a79.9,79.9,0,0,1-79.9-79.9h0a79.9,79.9,0,0,1,79.9-79.9h0a79.9,79.9,0,0,1,79.9,79.9Z" transform="translate(1.5 250.2)"/></g><g class="cls-6"><path class="cls-95" d="M144.9,469A59.9,59.9,0,0,1,85,528.9h0A59.9,59.9,0,0,1,25.1,469h0a59.9,59.9,0,0,1,119.8,0Z" transform="translate(1.5 250.2)"/><path class="cls-96" d="M218.07,409.85a59.9,59.9,0,0,1-59.9,59.9h0a59.9,59.9,0,0,1-59.9-59.9h0a59.9,59.9,0,1,1,119.8,0Z" transform="translate(1.5 250.2)"/></g><g class="cls-6"><path class="cls-97" d="M414.1,679.8a59.9,59.9,0,0,1-59.9,59.9h0a59.9,59.9,0,0,1-59.9-59.9h0a59.9,59.9,0,0,1,59.9-59.9h0a59.9,59.9,0,0,1,59.9,59.9Z" transform="translate(1.5 250.2)"/></g><g class="cls-98"><path class="cls-99" d="M531.77,933.86a89.9,89.9,0,0,1-89.9,89.9h0a89.9,89.9,0,0,1-89.9-89.9h0a89.9,89.9,0,0,1,179.8,0Z" transform="translate(1.5 250.2)"/></g><g class="cls-6"><path class="cls-100" d="M150.1,623.8a51.9,51.9,0,0,1-51.9,51.9h0a51.9,51.9,0,0,1-51.9-51.9h0a51.9,51.9,0,0,1,51.9-51.9h0a51.9,51.9,0,0,1,51.9,51.9Z" transform="translate(1.5 250.2)"/></g><g class="cls-6"><path class="cls-101" d="M1375.2,578.4a73.2,73.2,0,1,1-73.2-73.2A73.2,73.2,0,0,1,1375.2,578.4Z" transform="translate(1.5 250.2)"/></g><g class="cls-102"><path class="cls-103" d="M1060.24,469.22A57.2,57.2,0,1,1,1003,412h0A57.2,57.2,0,0,1,1060.24,469.22Z" transform="translate(1.5 250.2)"/></g><g class="cls-6"><path class="cls-104" d="M430,417.8A42.2,42.2,0,0,1,387.8,460h0a42.2,42.2,0,0,1-42.2-42.2h0a42.2,42.2,0,0,1,42.2-42.2h0A42.2,42.2,0,0,1,430,417.8Z" transform="translate(1.5 250.2)"/></g><g class="cls-6"><path class="cls-105" d="M1350.2,485.12a97.2,97.2,0,1,1-97.2-97.2A97.2,97.2,0,0,1,1350.2,485.12Z" transform="translate(1.5 250.2)"/><path class="cls-106" d="M1171.2,291.09a97.2,97.2,0,1,1-97.2-97.2A97.19,97.19,0,0,1,1171.2,291.09Z" transform="translate(1.5 250.2)"/></g><g class="cls-6"><path class="cls-107" d="M1428.5,909.8a45,45,0,0,1-45,45h0a45,45,0,0,1-45-45h0a45,45,0,0,1,45-45h0a45,45,0,0,1,45,45Z" transform="translate(1.5 250.2)"/></g><g class="cls-6"><path class="cls-108" d="M127.7,833A34.71,34.71,0,0,1,93,867.7h0A34.71,34.71,0,0,1,58.3,833h0A34.71,34.71,0,0,1,93,798.3h0A34.71,34.71,0,0,1,127.7,833Z" transform="translate(1.5 250.2)"/></g><g class="cls-109"><path class="cls-110" d="M1015,218.9a67.9,67.9,0,0,1-67.9,67.9h0a67.9,67.9,0,0,1-67.9-67.9h0a67.9,67.9,0,0,1,67.9-67.9h0a67.9,67.9,0,0,1,67.9,67.9Z" transform="translate(1.5 250.2)"/></g><g class="cls-111"><path class="cls-112" d="M1285,13.18a42.2,42.2,0,0,1-42.2,42.2h0a42.2,42.2,0,0,1-42.2-42.2h0A42.2,42.2,0,0,1,1242.8-29h0a42.2,42.2,0,0,1,42.2,42.2Z" transform="translate(1.5 250.2)"/><path class="cls-113" d="M1149.4,109.7a42.2,42.2,0,0,1-42.2,42.2h0a42.2,42.2,0,0,1-42.2-42.2h0a42.2,42.2,0,0,1,42.2-42.2h0a42.2,42.2,0,0,1,42.2,42.2Z" transform="translate(1.5 250.2)"/><path class="cls-114" d="M148.41,159.47a42.2,42.2,0,0,1-42.2,42.2h0A42.2,42.2,0,0,1,64,159.47h0a42.2,42.2,0,0,1,42.2-42.2h0a42.2,42.2,0,0,1,42.2,42.2Z" transform="translate(1.5 250.2)"/></g><g class="cls-115"><path class="cls-116" d="M413.59,507.23a15.1,15.1,0,1,1-15.1-15.1A15.1,15.1,0,0,1,413.59,507.23Z" transform="translate(1.5 250.2)"/></g><g class="cls-117"><path class="cls-118" d="M1072.12,426.5a11.3,11.3,0,1,1-11.3-11.3A11.3,11.3,0,0,1,1072.12,426.5Z" transform="translate(1.5 250.2)"/></g><g class="cls-6"><path class="cls-7" d="M513,955s-31.3-144.7-86-172c0,0,62.7,45,73.3,190.7Z" transform="translate(1.5 250.2)"/></g><g class="cls-119"><path d="M321.27,929.47s-16.7-88-59.3-111.3c0,0,72,38,76.7,126l-14,6.7Z" transform="translate(1.5 250.2)"/></g><g class="cls-120"><path d="M505.4,960.2s48.8-136.4,87.7-162.7c0,0-68,122.7-64.9,164Z" transform="translate(1.5 250.2)"/></g><g class="cls-121"><path class="cls-122" d="M262.75,261.74a42.2,42.2,0,0,1-42.2,42.2h0a42.2,42.2,0,0,1-42.2-42.2h0a42.2,42.2,0,0,1,42.2-42.2h0a42.2,42.2,0,0,1,42.2,42.2Z" transform="translate(1.5 250.2)"/></g><rect class="cls-123" x="1.5" width="1400" height="126.86"/><path class="cls-124" d="M1249.83-31.72a42.2,42.2,0,0,1-42.2,42.2h0a42.2,42.2,0,0,1-42.21-42.2h0a42.21,42.21,0,0,1,42.2-42.2h0a42.21,42.21,0,0,1,42.2,42.2Z" transform="translate(1.5 250.2)"/></svg>