<?xml version="1.0" encoding="utf-8"?>
<svg id="master-artboard" viewBox="0 0 1400 980" version="1.1" xmlns="http://www.w3.org/2000/svg" x="0px" y="0px" style="enable-background:new 0 0 1400 980;" width="1400px" height="980px" xmlns:xlink="http://www.w3.org/1999/xlink">

<g transform="matrix(1, 0, 0, 1, 1.4210854715202004e-14, 7.105427357601002e-15)">
		<g>
			<defs>
				<path d="M 0 0 H 1400 V 980 H 0 V 0 Z" id="SVGID_1_"/>
			</defs>
			<clipPath id="SVGID_2_">
				<use style="overflow:visible;" xlink:href="#SVGID_1_"/>
			</clipPath>
			<path d="M 0 0 H 1400 V 13.1 H 0 V 0 Z" class="st0" style="clip-path: url('#SVGID_2_'); fill: rgb(37, 45, 95);"/>
			<path d="M 0 13.1 H 1400 V 23 H 0 V 13.1 Z" class="st0" style="clip-path: url('#SVGID_2_'); fill: rgb(37, 45, 95);"/>
			<path d="M 0 23 H 1400 V 32.9 H 0 V 23 Z" class="st1" style="clip-path: url('#SVGID_2_'); fill: rgb(38, 45, 95);"/>
			<path d="M 0 32.900002 H 1400 V 42.800001 H 0 V 32.900002 Z" class="st2" style="clip-path: url('#SVGID_2_'); fill: rgb(40, 45, 95);"/>
			<path d="M 0 42.799999 H 1400 V 52.699999 H 0 V 42.799999 Z" class="st3" style="clip-path: url('#SVGID_2_'); fill: rgb(41, 45, 95);"/>
			<path d="M 0 52.700001 H 1400 V 62.6 H 0 V 52.700001 Z" class="st4" style="clip-path: url('#SVGID_2_'); fill: rgb(43, 45, 95);"/>
			<path d="M 0 62.599998 H 1400 V 72.499998 H 0 V 62.599998 Z" class="st5" style="clip-path: url('#SVGID_2_'); fill: rgb(44, 45, 95);"/>
			<path d="M 0 72.5 H 1400 V 82.4 H 0 V 72.5 Z" class="st6" style="clip-path: url('#SVGID_2_'); fill: rgb(46, 45, 95);"/>
			<path d="M 0 82.400002 H 1400 V 92.300001 H 0 V 82.400002 Z" class="st7" style="clip-path: url('#SVGID_2_'); fill: rgb(47, 45, 95);"/>
			<path d="M 0 92.300003 H 1400 V 102.200003 H 0 V 92.300003 Z" class="st8" style="clip-path: url('#SVGID_2_'); fill: rgb(48, 45, 95);"/>
			<path d="M 0 102.199997 H 1400 V 112.099997 H 0 V 102.199997 Z" class="st9" style="clip-path: url('#SVGID_2_'); fill: rgb(50, 45, 94);"/>
			<path d="M 0 112.099998 H 1400 V 121.999998 H 0 V 112.099998 Z" class="st10" style="clip-path: url('#SVGID_2_'); fill: rgb(51, 45, 94);"/>
			<path d="M 0 122 H 1400 V 131.9 H 0 V 122 Z" class="st11" style="clip-path: url('#SVGID_2_'); fill: rgb(53, 45, 94);"/>
			<path d="M 0 131.899994 H 1400 V 141.799994 H 0 V 131.899994 Z" class="st12" style="clip-path: url('#SVGID_2_'); fill: rgb(54, 45, 94);"/>
			<path d="M 0 141.800003 H 1400 V 151.700003 H 0 V 141.800003 Z" class="st13" style="clip-path: url('#SVGID_2_'); fill: rgb(55, 45, 94);"/>
			<path d="M 0 151.699997 H 1400 V 161.599997 H 0 V 151.699997 Z" class="st14" style="clip-path: url('#SVGID_2_'); fill: rgb(57, 45, 94);"/>
			<path d="M 0 161.600006 H 1400 V 171.500006 H 0 V 161.600006 Z" class="st15" style="clip-path: url('#SVGID_2_'); fill: rgb(58, 45, 94);"/>
			<path d="M 0 171.5 H 1400 V 181.4 H 0 V 171.5 Z" class="st16" style="clip-path: url('#SVGID_2_'); fill: rgb(59, 45, 94);"/>
			<path d="M 0 181.399994 H 1400 V 191.299994 H 0 V 181.399994 Z" class="st17" style="clip-path: url('#SVGID_2_'); fill: rgb(61, 45, 94);"/>
			<path d="M 0 191.300003 H 1400 V 201.200003 H 0 V 191.300003 Z" class="st18" style="clip-path: url('#SVGID_2_'); fill: rgb(62, 45, 94);"/>
			<path d="M 0 201.199997 H 1400 V 211.099997 H 0 V 201.199997 Z" class="st19" style="clip-path: url('#SVGID_2_'); fill: rgb(63, 45, 94);"/>
			<path d="M 0 211.100006 H 1400 V 221.000006 H 0 V 211.100006 Z" class="st20" style="clip-path: url('#SVGID_2_'); fill: rgb(65, 45, 94);"/>
			<path d="M 0 221 H 1400 V 230.9 H 0 V 221 Z" class="st21" style="clip-path: url('#SVGID_2_'); fill: rgb(66, 45, 94);"/>
			<path d="M 0 230.899994 H 1400 V 240.799994 H 0 V 230.899994 Z" class="st22" style="clip-path: url('#SVGID_2_'); fill: rgb(67, 45, 94);"/>
			<path d="M 0 240.800003 H 1400 V 250.700003 H 0 V 240.800003 Z" class="st23" style="clip-path: url('#SVGID_2_'); fill: rgb(68, 45, 94);"/>
			<path d="M 0 250.699997 H 1400 V 260.599997 H 0 V 250.699997 Z" class="st24" style="clip-path: url('#SVGID_2_'); fill: rgb(70, 45, 94);"/>
			<path d="M 0 260.600006 H 1400 V 270.500006 H 0 V 260.600006 Z" class="st25" style="clip-path: url('#SVGID_2_'); fill: rgb(71, 45, 94);"/>
			<path d="M 0 270.5 H 1400 V 280.4 H 0 V 270.5 Z" class="st26" style="clip-path: url('#SVGID_2_'); fill: rgb(72, 45, 93);"/>
			<path d="M 0 280.399994 H 1400 V 290.299994 H 0 V 280.399994 Z" class="st27" style="clip-path: url('#SVGID_2_'); fill: rgb(74, 45, 93);"/>
			<path d="M 0 290.299988 H 1400 V 300.199987 H 0 V 290.299988 Z" class="st28" style="clip-path: url('#SVGID_2_'); fill: rgb(75, 45, 93);"/>
			<path d="M 0 300.200012 H 1400 V 310.100012 H 0 V 300.200012 Z" class="st29" style="clip-path: url('#SVGID_2_'); fill: rgb(76, 45, 93);"/>
			<path d="M 0 310.100006 H 1400 V 320.000006 H 0 V 310.100006 Z" class="st30" style="clip-path: url('#SVGID_2_'); fill: rgb(77, 45, 93);"/>
			<path d="M 0 320 H 1400 V 329.9 H 0 V 320 Z" class="st31" style="clip-path: url('#SVGID_2_'); fill: rgb(78, 45, 93);"/>
			<path d="M 0 329.899994 H 1400 V 339.799994 H 0 V 329.899994 Z" class="st32" style="clip-path: url('#SVGID_2_'); fill: rgb(80, 45, 93);"/>
			<path d="M 0 339.799988 H 1400 V 349.699987 H 0 V 339.799988 Z" class="st33" style="clip-path: url('#SVGID_2_'); fill: rgb(81, 45, 93);"/>
			<path d="M 0 349.700012 H 1400 V 359.600012 H 0 V 349.700012 Z" class="st34" style="clip-path: url('#SVGID_2_'); fill: rgb(82, 45, 93);"/>
			<path d="M 0 359.600006 H 1400 V 369.500006 H 0 V 359.600006 Z" class="st35" style="clip-path: url('#SVGID_2_'); fill: rgb(83, 45, 93);"/>
			<path d="M 0 369.5 H 1400 V 379.4 H 0 V 369.5 Z" class="st36" style="clip-path: url('#SVGID_2_'); fill: rgb(84, 44, 93);"/>
			<path d="M 0 379.399994 H 1400 V 389.299994 H 0 V 379.399994 Z" class="st37" style="clip-path: url('#SVGID_2_'); fill: rgb(86, 44, 93);"/>
			<path d="M 0 389.299988 H 1400 V 399.199987 H 0 V 389.299988 Z" class="st38" style="clip-path: url('#SVGID_2_'); fill: rgb(87, 44, 93);"/>
			<path d="M 0 399.200012 H 1400 V 409.100012 H 0 V 399.200012 Z" class="st39" style="clip-path: url('#SVGID_2_'); fill: rgb(88, 44, 93);"/>
			<path d="M 0 409.100006 H 1400 V 419.000006 H 0 V 409.100006 Z" class="st40" style="clip-path: url('#SVGID_2_'); fill: rgb(89, 44, 93);"/>
			<path d="M 0 419 H 1400 V 428.9 H 0 V 419 Z" class="st41" style="clip-path: url('#SVGID_2_'); fill: rgb(90, 44, 93);"/>
			<path d="M 0 428.899994 H 1400 V 438.799994 H 0 V 428.899994 Z" class="st42" style="clip-path: url('#SVGID_2_'); fill: rgb(91, 44, 93);"/>
			<path d="M 0 438.799988 H 1400 V 448.699987 H 0 V 438.799988 Z" class="st43" style="clip-path: url('#SVGID_2_'); fill: rgb(92, 44, 93);"/>
			<path d="M 0 448.700012 H 1400 V 458.600012 H 0 V 448.700012 Z" class="st44" style="clip-path: url('#SVGID_2_'); fill: rgb(93, 44, 93);"/>
			<path d="M 0 458.600006 H 1400 V 468.500006 H 0 V 458.600006 Z" class="st45" style="clip-path: url('#SVGID_2_'); fill: rgb(95, 44, 93);"/>
			<path d="M 0 468.5 H 1400 V 478.4 H 0 V 468.5 Z" class="st46" style="clip-path: url('#SVGID_2_'); fill: rgb(96, 44, 92);"/>
			<path d="M 0 478.399994 H 1400 V 488.299994 H 0 V 478.399994 Z" class="st47" style="clip-path: url('#SVGID_2_'); fill: rgb(97, 44, 92);"/>
			<path d="M 0 488.299988 H 1400 V 498.199987 H 0 V 488.299988 Z" class="st48" style="clip-path: url('#SVGID_2_'); fill: rgb(98, 44, 92);"/>
			<path d="M 0 498.200012 H 1400 V 508.100012 H 0 V 498.200012 Z" class="st49" style="clip-path: url('#SVGID_2_'); fill: rgb(99, 44, 92);"/>
			<path d="M 0 508.100006 H 1400 V 518.000006 H 0 V 508.100006 Z" class="st50" style="clip-path: url('#SVGID_2_'); fill: rgb(100, 44, 92);"/>
			<path d="M 0 518 H 1400 V 527.9 H 0 V 518 Z" class="st51" style="clip-path: url('#SVGID_2_'); fill: rgb(101, 44, 92);"/>
			<path d="M 0 527.900024 H 1400 V 537.800024 H 0 V 527.900024 Z" class="st52" style="clip-path: url('#SVGID_2_'); fill: rgb(102, 44, 92);"/>
			<path d="M 0 537.799988 H 1400 V 547.699987 H 0 V 537.799988 Z" class="st53" style="clip-path: url('#SVGID_2_'); fill: rgb(103, 44, 92);"/>
			<path d="M 0 547.700012 H 1400 V 557.600012 H 0 V 547.700012 Z" class="st54" style="clip-path: url('#SVGID_2_'); fill: rgb(104, 44, 92);"/>
			<path d="M 0 557.599976 H 1400 V 567.499975 H 0 V 557.599976 Z" class="st55" style="clip-path: url('#SVGID_2_'); fill: rgb(105, 44, 92);"/>
			<path d="M 0 567.5 H 1400 V 577.4 H 0 V 567.5 Z" class="st56" style="clip-path: url('#SVGID_2_'); fill: rgb(106, 44, 92);"/>
			<path d="M 0 577.400024 H 1400 V 587.300024 H 0 V 577.400024 Z" class="st57" style="clip-path: url('#SVGID_2_'); fill: rgb(107, 44, 92);"/>
			<path d="M 0 587.299988 H 1400 V 597.199987 H 0 V 587.299988 Z" class="st58" style="clip-path: url('#SVGID_2_'); fill: rgb(108, 44, 92);"/>
			<path d="M 0 597.200012 H 1400 V 607.100012 H 0 V 597.200012 Z" class="st59" style="clip-path: url('#SVGID_2_'); fill: rgb(109, 44, 92);"/>
			<path d="M 0 607.099976 H 1400 V 616.999975 H 0 V 607.099976 Z" class="st60" style="clip-path: url('#SVGID_2_'); fill: rgb(110, 44, 92);"/>
			<path d="M 0 617 H 1400 V 626.9 H 0 V 617 Z" class="st61" style="clip-path: url('#SVGID_2_'); fill: rgb(111, 44, 92);"/>
			<path d="M 0 626.900024 H 1400 V 636.800024 H 0 V 626.900024 Z" class="st61" style="clip-path: url('#SVGID_2_'); fill: rgb(111, 44, 92);"/>
			<path d="M 0 636.799988 H 1400 V 646.699987 H 0 V 636.799988 Z" class="st62" style="clip-path: url('#SVGID_2_'); fill: rgb(112, 44, 92);"/>
			<path d="M 0 646.700012 H 1400 V 656.600012 H 0 V 646.700012 Z" class="st63" style="clip-path: url('#SVGID_2_'); fill: rgb(113, 44, 92);"/>
			<path d="M 0 656.599976 H 1400 V 666.499975 H 0 V 656.599976 Z" class="st64" style="clip-path: url('#SVGID_2_'); fill: rgb(114, 44, 92);"/>
			<path d="M 0 666.5 H 1400 V 676.4 H 0 V 666.5 Z" class="st65" style="clip-path: url('#SVGID_2_'); fill: rgb(115, 44, 92);"/>
			<path d="M 0 676.400024 H 1400 V 686.300024 H 0 V 676.400024 Z" class="st66" style="clip-path: url('#SVGID_2_'); fill: rgb(116, 44, 92);"/>
			<path d="M 0 686.299988 H 1400 V 696.199987 H 0 V 686.299988 Z" class="st67" style="clip-path: url('#SVGID_2_'); fill: rgb(117, 44, 92);"/>
			<path d="M 0 696.200012 H 1400 V 706.100012 H 0 V 696.200012 Z" class="st67" style="clip-path: url('#SVGID_2_'); fill: rgb(117, 44, 92);"/>
			<path d="M 0 706.099976 H 1400 V 715.999975 H 0 V 706.099976 Z" class="st68" style="clip-path: url('#SVGID_2_'); fill: rgb(118, 44, 92);"/>
			<path d="M 0 716 H 1400 V 725.9 H 0 V 716 Z" class="st69" style="clip-path: url('#SVGID_2_'); fill: rgb(119, 44, 91);"/>
			<path d="M 0 725.900024 H 1400 V 735.800024 H 0 V 725.900024 Z" class="st70" style="clip-path: url('#SVGID_2_'); fill: rgb(120, 44, 91);"/>
			<path d="M 0 735.799988 H 1400 V 745.699987 H 0 V 735.799988 Z" class="st70" style="clip-path: url('#SVGID_2_'); fill: rgb(120, 44, 91);"/>
			<path d="M 0 745.700012 H 1400 V 755.600012 H 0 V 745.700012 Z" class="st71" style="clip-path: url('#SVGID_2_'); fill: rgb(121, 44, 91);"/>
			<path d="M 0 755.599976 H 1400 V 765.499975 H 0 V 755.599976 Z" class="st72" style="clip-path: url('#SVGID_2_'); fill: rgb(122, 44, 91);"/>
			<path d="M 0 765.5 H 1400 V 775.4 H 0 V 765.5 Z" class="st72" style="clip-path: url('#SVGID_2_'); fill: rgb(122, 44, 91);"/>
			<path d="M 0 775.400024 H 1400 V 785.300024 H 0 V 775.400024 Z" class="st73" style="clip-path: url('#SVGID_2_'); fill: rgb(123, 44, 91);"/>
			<path d="M 0 785.299988 H 1400 V 795.199987 H 0 V 785.299988 Z" class="st74" style="clip-path: url('#SVGID_2_'); fill: rgb(124, 44, 91);"/>
			<path d="M 0 795.200012 H 1400 V 805.100012 H 0 V 795.200012 Z" class="st74" style="clip-path: url('#SVGID_2_'); fill: rgb(124, 44, 91);"/>
			<path d="M 0 805.099976 H 1400 V 814.999975 H 0 V 805.099976 Z" class="st75" style="clip-path: url('#SVGID_2_'); fill: rgb(125, 44, 91);"/>
			<path d="M 0 815 H 1400 V 824.9 H 0 V 815 Z" class="st76" style="clip-path: url('#SVGID_2_'); fill: rgb(126, 44, 91);"/>
			<path d="M 0 824.900024 H 1400 V 834.800024 H 0 V 824.900024 Z" class="st76" style="clip-path: url('#SVGID_2_'); fill: rgb(126, 44, 91);"/>
			<path d="M 0 834.799988 H 1400 V 844.699987 H 0 V 834.799988 Z" class="st77" style="clip-path: url('#SVGID_2_'); fill: rgb(127, 44, 91);"/>
			<path d="M 0 844.700012 H 1400 V 854.600012 H 0 V 844.700012 Z" class="st77" style="clip-path: url('#SVGID_2_'); fill: rgb(127, 44, 91);"/>
			<path d="M 0 854.599976 H 1400 V 864.499975 H 0 V 854.599976 Z" class="st78" style="clip-path: url('#SVGID_2_'); fill: rgb(128, 44, 91);"/>
			<path d="M 0 864.5 H 1400 V 874.4 H 0 V 864.5 Z" class="st78" style="clip-path: url('#SVGID_2_'); fill: rgb(128, 44, 91);"/>
			<path d="M 0 874.400024 H 1400 V 884.300024 H 0 V 874.400024 Z" class="st79" style="clip-path: url('#SVGID_2_'); fill: rgb(129, 44, 91);"/>
			<path d="M 0 884.299988 H 1400 V 894.199987 H 0 V 884.299988 Z" class="st79" style="clip-path: url('#SVGID_2_'); fill: rgb(129, 44, 91);"/>
			<path d="M 0 894.200012 H 1400 V 904.100012 H 0 V 894.200012 Z" class="st79" style="clip-path: url('#SVGID_2_'); fill: rgb(129, 44, 91);"/>
			<path d="M 0 904.099976 H 1400 V 913.999975 H 0 V 904.099976 Z" class="st80" style="clip-path: url('#SVGID_2_'); fill: rgb(130, 44, 91);"/>
			<path d="M 0 914 H 1400 V 923.9 H 0 V 914 Z" class="st80" style="clip-path: url('#SVGID_2_'); fill: rgb(130, 44, 91);"/>
			<path d="M 0 923.900024 H 1400 V 933.800024 H 0 V 923.900024 Z" class="st80" style="clip-path: url('#SVGID_2_'); fill: rgb(130, 44, 91);"/>
			<path d="M 0 933.799988 H 1400 V 979.999989 H 0 V 933.799988 Z" class="st80" style="clip-path: url('#SVGID_2_'); fill: rgb(130, 44, 91);"/>
		</g>
	</g>

<g transform="matrix(1, 0, 0, 1, 1.4210854715202004e-14, 7.105427357601002e-15)">
		<g>
			<path class="st83" d="M1400,457.1c-30.3-71.2-78-135.3-138.2-185.7c-24-20.1-56.9-39-85.8-26.2c-14.8,6.5-24.7,20.1-33.9,33&#10;&#9;&#9;&#9;&#9;c-28.2,39.5-56.4,79-84.6,118.5c-4.7,6.6-10.7,13.8-18.9,13.8c-7.8,0-13.7-6.5-18.6-12.3c-20-23.9-45.4-48.2-77.2-48.8&#10;&#9;&#9;&#9;&#9;c-33.7-0.6-61.4,25.9-79.3,53.5c-18,27.6-31.5,59.1-57.4,80c-7.2,5.8-16.5,10.9-25.6,8.6c-7.6-1.9-12.9-8.4-19.3-12.7&#10;&#9;&#9;&#9;&#9;c-21.6-14.5-52.2-2.5-70.5,15.6c-18.4,18.1-30.6,41.9-50.9,57.9c-35.6,28.2-93.9,24-124.8-9c-6.5-6.9-12-14.9-20-20.2&#10;&#9;&#9;&#9;&#9;c-8-5.2-19.8-6.7-26.8-0.3c-6.4,5.9-7,16.6-14.5,20.9c-9.2,5.2-20.9-3.5-24.1-13.4c-3.3-9.8-1.8-20.6-4.8-30.5&#10;&#9;&#9;&#9;&#9;c-7-23.2-41.7-32.9-60.4-17c-11.6,9.9-17.3,26.9-32,31.5c-12.5,4-26.3-3.5-33.7-13.9c-7.4-10.4-10-23.3-13-35.6&#10;&#9;&#9;&#9;&#9;c-8-33.4-20.2-67-44.6-91.9c-24.4-24.9-63.2-38.9-96.3-26.8c-30.2,11-48.8,40-64.2,67.5C49.3,469.3,23.7,526.9,0,585.9v180.6&#10;&#9;&#9;&#9;&#9;h1400V457.1z" style="fill: rgb(39, 36, 81);"/>
		</g>
		<g>
			<path class="st84" d="M1261.8,271.4c-24-20.1-56.9-39-85.8-26.2c-14.8,6.5-24.7,20.1-33.9,33c-28.2,39.5-56.4,79-84.6,118.5&#10;&#9;&#9;&#9;&#9;c-4.7,6.6-10.7,13.8-18.9,13.8c-7.8,0-13.7-6.5-18.6-12.3c-20-23.9-45.4-48.2-77.2-48.8c-33.7-0.6-61.4,25.9-79.3,53.5&#10;&#9;&#9;&#9;&#9;c-18,27.6-31.5,59.1-57.4,80c-7.2,5.8-16.5,10.9-25.6,8.6c-7.6-1.9-12.9-8.4-19.3-12.7c-21.6-14.5-52.2-2.5-70.5,15.6&#10;&#9;&#9;&#9;&#9;c-18.4,18.1-30.6,41.9-50.9,57.9c-35.6,28.2-93.9,24-124.8-9c-6.5-6.9-12-14.9-20-20.2c-8-5.2-19.8-6.7-26.8-0.3&#10;&#9;&#9;&#9;&#9;c-6.4,5.9-7,16.6-14.5,20.9c-9.2,5.2-20.9-3.5-24.1-13.4c-3.3-9.8-1.8-20.6-4.8-30.5c-7-23.2-41.7-32.9-60.4-17&#10;&#9;&#9;&#9;&#9;c-11.6,9.9-17.3,26.9-32,31.5c-12.5,4-26.3-3.5-33.7-13.9c-7.4-10.4-10-23.3-13-35.6c-8-33.4-20.2-67-44.6-91.9&#10;&#9;&#9;&#9;&#9;s-63.2-38.9-96.3-26.8c-30.2,11-48.8,40-64.2,67.5C49.3,469.3,23.7,526.9,0,585.9v10.4c23.7-59,49.3-116.6,80.5-172.2&#10;&#9;&#9;&#9;&#9;c15.4-27.5,34-56.4,64.2-67.5c33.1-12.1,72,2,96.3,26.8c24.4,24.9,36.6,58.5,44.6,91.9c2.9,12.4,5.6,25.2,13,35.6&#10;&#9;&#9;&#9;&#9;s21.3,17.9,33.7,13.9c14.7-4.7,20.4-21.7,32-31.5c18.7-16,53.5-6.2,60.4,17c3,9.9,1.5,20.7,4.8,30.5c3.3,9.8,15,18.6,24.1,13.4&#10;&#9;&#9;&#9;&#9;c7.6-4.3,8.2-15,14.5-20.9c7-6.5,18.8-4.9,26.8,0.3c8,5.2,13.5,13.3,20,20.2c30.9,33,89.2,37.1,124.8,9&#10;&#9;&#9;&#9;&#9;c20.3-16.1,32.5-39.8,50.9-57.9c18.4-18.1,49-30.1,70.5-15.6c6.5,4.3,11.7,10.8,19.3,12.7c9.1,2.3,18.4-2.8,25.6-8.6&#10;&#9;&#9;&#9;&#9;c25.9-20.9,39.4-52.4,57.4-80c18-27.6,45.6-54.1,79.3-53.5c31.8,0.6,57.2,24.9,77.2,48.8c4.9,5.9,10.8,12.3,18.6,12.3&#10;&#9;&#9;&#9;&#9;c8.2,0,14.2-7.3,18.9-13.8c28.2-39.5,56.4-79,84.6-118.5c9.2-12.9,19.1-26.4,33.9-33c28.9-12.8,61.8,6,85.8,26.2&#10;&#9;&#9;&#9;&#9;c60.1,50.4,107.9,114.5,138.2,185.7v-10.4C1369.7,385.9,1322,321.8,1261.8,271.4z" style="fill: rgb(58, 61, 118);"/>
		</g>
	</g>
<g transform="matrix(1, 0, 0, 1, 1.4210854715202004e-14, 7.105427357601002e-15)">
		<g>
			<path class="st85" d="M1400,576c-56.7,17.8-116.4-12.5-167.2-43.5s-106.6-65.2-165.3-55.6c-58.9,9.6-100.7,59.9-143.5,101.5&#10;&#9;&#9;&#9;&#9;c-42.8,41.6-104,79-159,56c-16.8-7-32.3-19.6-50.5-19.6c-32.1-0.1-53.5,37.9-85.5,41c-44.2,4.3-71.8-58.4-116.2-57.3&#10;&#9;&#9;&#9;&#9;c-50.2,1.3-65.5,78.7-114.1,91.1c-30.8,7.9-60.6-13.8-84.9-34.3c-50-42.2-101-86.1-162.5-108.5c-21.2-7.7-43.2-4.6-62.8,6.5&#10;&#9;&#9;&#9;&#9;C57.5,570.8,2,624.6,0,634.3V801l1400,97.3V576z" style="fill: rgb(62, 117, 92);"/>
		</g>
		<g>
			<path class="st86" d="M1232.8,532.5c-50.7-31-106.6-65.2-165.3-55.6c-58.9,9.6-100.7,59.9-143.5,101.5c-42.8,41.6-104,79-159,56&#10;&#9;&#9;&#9;&#9;c-16.8-7-32.3-19.6-50.5-19.6c-32.1-0.1-53.5,37.9-85.5,41c-44.2,4.3-71.8-58.4-116.2-57.3c-50.2,1.3-65.5,78.7-114.1,91.1&#10;&#9;&#9;&#9;&#9;c-30.8,7.9-60.6-13.8-84.9-34.3c-50-42.2-101-86.1-162.5-108.5c-21.2-7.7-43.2-4.6-62.8,6.5C57.5,570.8,2,624.6,0,634.3v9.4&#10;&#9;&#9;&#9;&#9;c2-9.7,57.5-63.5,88.5-80.9c19.6-11,41.6-14.2,62.8-6.5c61.5,22.4,112.5,66.2,162.5,108.5c24.3,20.5,54.1,42.2,84.9,34.3&#10;&#9;&#9;&#9;&#9;c48.6-12.4,63.9-89.9,114.1-91.1c44.4-1.1,72,61.5,116.2,57.3c32-3.1,53.4-41.1,85.5-41c18.2,0,33.7,12.6,50.5,19.6&#10;&#9;&#9;&#9;&#9;c55,23,116.2-14.4,159-56c42.8-41.6,84.7-91.9,143.5-101.5c58.7-9.6,114.5,24.6,165.3,55.6c50.7,31,110.4,61.2,167.2,43.5V576&#10;&#9;&#9;&#9;&#9;C1343.3,593.7,1283.6,563.5,1232.8,532.5z" style="fill: rgb(80, 152, 114);"/>
		</g>
	</g>
<g transform="matrix(1, 0, 0, 1, 1.4210854715202004e-14, 7.105427357601002e-15)">
		<g>
			<path class="st87" d="M927.9,631.9c-2,7.2-12.3,51.1-20.6,58.8c7.7,2.1,33.5,2.1,41.2,0C939.4,680.8,930,639.1,927.9,631.9z" style="fill: rgb(34, 79, 60);"/>
		</g>
	</g><g transform="matrix(1, 0, 0, 1, 2.842170943040401e-14, 1.4210854715202004e-14)">
			<g>
				<path class="st87" d="M1134.8,473c-1.7,6.1-10.4,43.2-17.4,49.7c3.3,0.9,10.5,1.4,17.6,1.3v-50.1&#10;&#9;&#9;&#9;&#9;&#9;C1135,473.5,1134.9,473.2,1134.8,473z" style="fill: rgb(34, 79, 60);"/>
			</g>
			<g>
				<path class="st88" d="M1135.1,473.9V524c7,0,13.9-0.5,17.1-1.3C1144.9,514.7,1137.2,481.9,1135.1,473.9z" style="fill: rgb(20, 62, 45);"/>
			</g>
		</g><g transform="matrix(1, 0, 0, 1, 4.263256414560601e-14, 2.1316282072803006e-14)">
				<path class="st87" d="M1068.5,467.8c-2,7.1-12.1,50.2-20.2,57.7c3.4,0.9,10.4,1.5,17.7,1.5l2.6-58.9&#10;&#9;&#9;&#9;&#9;&#9;C1068.6,468.1,1068.6,467.9,1068.5,467.8z" style="fill: rgb(34, 79, 60);"/>
			</g><path class="st88" d="M1088.8,525.5c-8.8-9.5-17.9-49.2-20.1-57.3l-2.6,58.9C1075.1,527.2,1084.6,526.7,1088.8,525.5z" style="fill: rgb(20, 62, 45);" transform="matrix(1, 0, 0, 1, 4.263256414560601e-14, 2.1316282072803006e-14)"/><g transform="matrix(1, 0, 0, 1, 4.263256414560601e-14, 2.1316282072803006e-14)">
				<path class="st88" d="M1132.4,520.3c-13-14-26.4-73.5-29.3-83.8c-0.2,0.8-0.5,1.9-0.9,3.2l-0.7,82.9&#10;&#9;&#9;&#9;&#9;&#9;C1113.9,522.6,1126.7,521.8,1132.4,520.3z" style="fill: rgb(20, 62, 45);"/>
			</g><path class="st87" d="M1073.7,520.3c5.2,1.4,16.4,2.2,27.8,2.3l0.7-82.9C1097.9,456,1084.6,510.1,1073.7,520.3z" style="fill: rgb(34, 79, 60);" transform="matrix(1, 0, 0, 1, 4.263256414560601e-14, 2.1316282072803006e-14)"/><g transform="matrix(1, 0, 0, 1, 4.263256414560601e-14, 2.1316282072803006e-14)">
				<path class="st87" d="M1010.4,532.7c4.1,1.1,12.5,1.8,21.4,1.9l2.6-70C1031.1,477.1,1019.7,524,1010.4,532.7z" style="fill: rgb(34, 79, 60);"/>
			</g><path class="st88" d="M1059.4,532.7c-10.8-11.7-22.1-61.4-24.5-70c-0.1,0.5-0.3,1.1-0.5,1.9l-2.6,70&#10;&#9;&#9;&#9;&#9;&#9;C1042.7,534.7,1054.4,534.1,1059.4,532.7z" style="fill: rgb(20, 62, 45);" transform="matrix(1, 0, 0, 1, 4.263256414560601e-14, 2.1316282072803006e-14)"/><g transform="matrix(1, 0, 0, 1, 4.263256414560601e-14, 2.1316282072803006e-14)">
				<path class="st87" d="M1162.9,488.6c-1.4,4.9-8.3,34.3-13.8,39.5c2.4,0.7,7.3,1,12.4,1.1l1.5-40.4&#10;&#9;&#9;&#9;&#9;&#9;C1162.9,488.7,1162.9,488.6,1162.9,488.6z" style="fill: rgb(34, 79, 60);"/>
			</g><path class="st88" d="M1176.7,528.1c-6.1-6.5-12.3-34.1-13.8-39.4l-1.5,40.4C1167.5,529.2,1173.9,528.8,1176.7,528.1z" style="fill: rgb(20, 62, 45);" transform="matrix(1, 0, 0, 1, 4.263256414560601e-14, 2.1316282072803006e-14)"/><g transform="matrix(1, 0, 0, 1, 2.842170943040401e-14, 1.4210854715202004e-14)">
			<g>
				<path class="st88" d="M950.4,701.9c-0.1,0.2-0.1,0.5-0.2,0.7l0.7,73.4c10.1,0,20.1-0.7,24.8-2&#10;&#9;&#9;&#9;&#9;&#9;C964.5,762,952.9,710.8,950.4,701.9z" style="fill: rgb(20, 62, 45);"/>
			</g>
			<g>
				<path class="st87" d="M925.1,774c4.8,1.3,15.3,2,25.8,2l-0.7-73.4C947.3,713.4,935.1,764.8,925.1,774z" style="fill: rgb(34, 79, 60);"/>
			</g>
		</g><g transform="matrix(1, 0, 0, 1, 4.263256414560601e-14, 2.1316282072803006e-14)">
				<path class="st87" d="M854.1,694.4c-2.9,10.3-17.5,72.9-29.4,83.9c5.2,1.4,16.4,2.2,27.9,2.3l1.8-85.1&#10;&#9;&#9;&#9;&#9;&#9;C854.3,695.1,854.2,694.7,854.1,694.4z" style="fill: rgb(34, 79, 60);"/>
			</g><path class="st88" d="M883.4,778.3c-12.6-13.6-25.6-69.9-29.1-82.8l-1.8,85.1C865,780.6,877.7,779.8,883.4,778.3z" style="fill: rgb(20, 62, 45);" transform="matrix(1, 0, 0, 1, 4.263256414560601e-14, 2.1316282072803006e-14)"/><g transform="matrix(1, 0, 0, 1, 4.263256414560601e-14, 2.1316282072803006e-14)">
				<path class="st88" d="M944.8,788.1c-18.8-20.4-38.4-106.8-42.6-121.8l-2,125.1C918.2,791.5,936.6,790.4,944.8,788.1z" style="fill: rgb(20, 62, 45);"/>
			</g><path class="st87" d="M902.2,666.3c-4.2,15-25.4,105.9-42.6,121.8c7.6,2.1,24,3.2,40.6,3.3L902.2,666.3&#10;&#9;&#9;&#9;&#9;&#9;C902.2,666.3,902.2,666.3,902.2,666.3z" style="fill: rgb(34, 79, 60);" transform="matrix(1, 0, 0, 1, 4.263256414560601e-14, 2.1316282072803006e-14)"/><g transform="matrix(1, 0, 0, 1, 4.263256414560601e-14, 2.1316282072803006e-14)">
				<path class="st87" d="M805.2,686.9c-3.5,12.5-21.3,88.5-35.6,101.8c7.1,2,23.4,2.9,38.9,2.7l-2.9-103.1&#10;&#9;&#9;&#9;&#9;&#9;C805.4,687.7,805.3,687.3,805.2,686.9z" style="fill: rgb(34, 79, 60);"/>
			</g><path class="st88" d="M805.6,688.2l2.9,103.1c13.4-0.1,26.2-1,32.3-2.7C825.6,772.2,809.8,704,805.6,688.2z" style="fill: rgb(20, 62, 45);" transform="matrix(1, 0, 0, 1, 4.263256414560601e-14, 2.1316282072803006e-14)"/><g transform="matrix(1, 0, 0, 1, 4.263256414560601e-14, 2.1316282072803006e-14)">
				<path class="st87" d="M991.1,724.5c-2,7.1-12,49.9-20.1,57.4c3.5,1,11.1,1.5,18.9,1.5l1.6-57.7&#10;&#9;&#9;&#9;&#9;&#9;C991.3,725.3,991.2,724.9,991.1,724.5z" style="fill: rgb(34, 79, 60);"/>
			</g><path class="st88" d="M991.5,725.8l-1.6,57.7c8.6,0.1,17.4-0.5,21.3-1.5C1002.8,772.8,994,735.5,991.5,725.8z" style="fill: rgb(20, 62, 45);" transform="matrix(1, 0, 0, 1, 4.263256414560601e-14, 2.1316282072803006e-14)"/><g transform="matrix(1, 0, 0, 1, 2.842170943040401e-14, 1.4210854715202004e-14)">
			<g>
				<path class="st88" d="M556.7,756.6c-0.1,0.2-0.1,0.5-0.2,0.7l0.7,73.4c10.1,0,20.1-0.7,24.8-2&#10;&#9;&#9;&#9;&#9;&#9;C570.8,816.7,559.2,765.4,556.7,756.6z" style="fill: rgb(20, 62, 45);"/>
			</g>
			<g>
				<path class="st87" d="M531.4,828.7c4.8,1.3,15.3,2,25.8,2l-0.7-73.4C553.5,768.1,541.3,819.5,531.4,828.7z" style="fill: rgb(34, 79, 60);"/>
			</g>
		</g><g transform="matrix(1, 0, 0, 1, 4.263256414560601e-14, 2.1316282072803006e-14)">
				<path class="st87" d="M460.3,749c-2.9,10.3-17.5,72.9-29.4,83.9c5.2,1.4,16.4,2.2,27.9,2.3l1.8-85.1&#10;&#9;&#9;&#9;&#9;&#9;C460.5,749.7,460.4,749.4,460.3,749z" style="fill: rgb(34, 79, 60);"/>
			</g><path class="st88" d="M489.7,832.9c-12.6-13.6-25.6-69.9-29.1-82.8l-1.8,85.1C471.3,835.3,484,834.5,489.7,832.9z" style="fill: rgb(20, 62, 45);" transform="matrix(1, 0, 0, 1, 4.263256414560601e-14, 2.1316282072803006e-14)"/><g transform="matrix(1, 0, 0, 1, 4.263256414560601e-14, 2.1316282072803006e-14)">
				<path class="st88" d="M551.1,842.8C532.2,822.4,512.7,736,508.4,721l-2,125.1C524.4,846.1,542.8,845,551.1,842.8z" style="fill: rgb(20, 62, 45);"/>
			</g><path class="st87" d="M508.4,721c-4.2,15-25.4,105.9-42.6,121.8c7.6,2.1,24,3.2,40.6,3.3L508.4,721&#10;&#9;&#9;&#9;&#9;&#9;C508.4,721,508.4,721,508.4,721z" style="fill: rgb(34, 79, 60);" transform="matrix(1, 0, 0, 1, 4.263256414560601e-14, 2.1316282072803006e-14)"/><g transform="matrix(1, 0, 0, 1, 4.263256414560601e-14, 2.1316282072803006e-14)">
				<path class="st87" d="M411.5,741.5c-3.5,12.5-21.3,88.5-35.6,101.8c7.1,2,23.4,2.9,38.9,2.7l-2.9-103.1&#10;&#9;&#9;&#9;&#9;&#9;C411.7,742.4,411.6,741.9,411.5,741.5z" style="fill: rgb(34, 79, 60);"/>
			</g><path class="st88" d="M411.8,742.9l2.9,103.1c13.4-0.1,26.2-1,32.3-2.7C431.9,826.8,416.1,758.6,411.8,742.9z" style="fill: rgb(20, 62, 45);" transform="matrix(1, 0, 0, 1, 4.263256414560601e-14, 2.1316282072803006e-14)"/><g transform="matrix(1, 0, 0, 1, 4.263256414560601e-14, 2.1316282072803006e-14)">
				<path class="st87" d="M597.4,779.2c-2,7.1-12,49.9-20.1,57.4c3.5,1,11.1,1.5,18.9,1.5l1.6-57.7&#10;&#9;&#9;&#9;&#9;&#9;C597.6,780,597.5,779.6,597.4,779.2z" style="fill: rgb(34, 79, 60);"/>
			</g><path class="st88" d="M597.7,780.5l-1.6,57.7c8.6,0.1,17.4-0.5,21.3-1.5C609,827.5,600.3,790.2,597.7,780.5z" style="fill: rgb(20, 62, 45);" transform="matrix(1, 0, 0, 1, 4.263256414560601e-14, 2.1316282072803006e-14)"/><g transform="matrix(1, 0, 0, 1, 2.842170943040401e-14, 1.4210854715202004e-14)">
			<path class="st87" d="M1014.4,604.2c3,0.8,9.2,1.3,15.7,1.3l1-48.2C1028.4,567.9,1020.7,598.4,1014.4,604.2z" style="fill: rgb(34, 79, 60);"/>
		</g><path class="st88" d="M1049.2,604.2c-7.7-8.3-15.7-43.6-17.4-49.7c-0.2,0.6-0.4,1.6-0.7,2.7l-1,48.2&#10;&#9;&#9;&#9;&#9;C1037.7,605.6,1045.7,605.2,1049.2,604.2z" style="fill: rgb(20, 62, 45);" transform="matrix(1, 0, 0, 1, 4.263256414560601e-14, 2.1316282072803006e-14)"/><g transform="matrix(1, 0, 0, 1, 2.842170943040401e-14, 1.4210854715202004e-14)">
			<path class="st87" d="M945.3,607.1c3.4,0.9,10.5,1.5,17.9,1.5l2.2-58.8C963.1,558.1,953.3,599.7,945.3,607.1z" style="fill: rgb(34, 79, 60);"/>
		</g><path class="st88" d="M985.7,607.1c-8.9-9.7-18.2-50.7-20.2-57.7c0,0.1-0.1,0.3-0.1,0.5l-2.2,58.8&#10;&#9;&#9;&#9;&#9;C972.2,608.8,981.6,608.3,985.7,607.1z" style="fill: rgb(20, 62, 45);" transform="matrix(1, 0, 0, 1, 4.263256414560601e-14, 2.1316282072803006e-14)"/><g transform="matrix(1, 0, 0, 1, 2.842170943040401e-14, 1.4210854715202004e-14)">
			<path class="st87" d="M1111.2,543.1c-1.8,6.5-11,45.9-18.5,52.8c6.9,1.9,30.1,1.9,36.9,0C1121.5,587,1113,549.5,1111.2,543.1z" style="fill: rgb(34, 79, 60);"/>
		</g><g transform="matrix(1, 0, 0, 1, 2.842170943040401e-14, 1.4210854715202004e-14)">
			<path class="st87" d="M907.4,614.3c4.8,1.3,15.5,2,25.9,1.9l-1.8-70.6C928.4,557.1,916.8,605.5,907.4,614.3z" style="fill: rgb(34, 79, 60);"/>
		</g><path class="st88" d="M931.9,544.2c-0.1,0.4-0.2,0.8-0.4,1.3l1.8,70.6c9.5-0.1,18.8-0.7,23.1-1.9&#10;&#9;&#9;&#9;&#9;C945.6,602.6,934.3,552.8,931.9,544.2z" style="fill: rgb(20, 62, 45);" transform="matrix(1, 0, 0, 1, 4.263256414560601e-14, 2.1316282072803006e-14)"/><g transform="matrix(1, 0, 0, 1, 2.842170943040401e-14, 1.4210854715202004e-14)">
			<path class="st87" d="M1046,609.7c2.4,0.7,7.5,1,12.7,1.1l1-40C1058,577.1,1051.4,604.7,1046,609.7z" style="fill: rgb(34, 79, 60);"/>
		</g><path class="st88" d="M1073.7,609.7c-6.1-6.6-12.5-34.7-13.8-39.5c0,0.2-0.1,0.4-0.2,0.6l-1,40&#10;&#9;&#9;&#9;&#9;C1064.7,610.8,1070.9,610.4,1073.7,609.7z" style="fill: rgb(20, 62, 45);" transform="matrix(1, 0, 0, 1, 4.263256414560601e-14, 2.1316282072803006e-14)"/><g transform="matrix(1, 0, 0, 1, 2.842170943040401e-14, 1.4210854715202004e-14)">
			<path class="st87" d="M1149,601.5c3.1,0.9,9.8,1.3,16.7,1.3l0.7-50.9C1164.6,558.3,1156,595,1149,601.5z" style="fill: rgb(34, 79, 60);"/>
		</g><path class="st88" d="M1183.8,601.5c-7.7-8.3-15.7-43.6-17.4-49.7c0,0,0,0.1,0,0.1l-0.7,50.9&#10;&#9;&#9;&#9;&#9;C1173,602.9,1180.5,602.4,1183.8,601.5z" style="fill: rgb(20, 62, 45);" transform="matrix(1, 0, 0, 1, 4.263256414560601e-14, 2.1316282072803006e-14)"/><g transform="matrix(1, 0, 0, 1, 2.842170943040401e-14, 1.4210854715202004e-14)">
			<path class="st87" d="M446.8,681.2c1.8,0.5,5.4,0.7,9.2,0.8l0.6-28.4C455,659.8,450.5,677.8,446.8,681.2z" style="fill: rgb(34, 79, 60);"/>
		</g><path class="st88" d="M467.2,681.2c-4.5-4.9-9.2-25.7-10.2-29.3c-0.1,0.4-0.2,0.9-0.4,1.6L456,682&#10;&#9;&#9;&#9;&#9;C460.5,682.1,465.2,681.8,467.2,681.2z" style="fill: rgb(20, 62, 45);" transform="matrix(1, 0, 0, 1, 4.263256414560601e-14, 2.1316282072803006e-14)"/><g transform="matrix(1, 0, 0, 1, 2.842170943040401e-14, 1.4210854715202004e-14)">
			<path class="st87" d="M503.8,645.2c-1.1,3.8-6.5,27-10.9,31.1c4.1,1.1,17.7,1.1,21.8,0C509.9,671.1,504.9,649,503.8,645.2z" style="fill: rgb(34, 79, 60);"/>
		</g><g transform="matrix(1, 0, 0, 1, 2.842170943040401e-14, 1.4210854715202004e-14)">
			<path class="st87" d="M465.4,684.4c1.4,0.4,4.4,0.6,7.5,0.6l0.6-23.6C472.4,665.2,468.5,681.5,465.4,684.4z" style="fill: rgb(34, 79, 60);"/>
		</g><path class="st88" d="M481.7,684.4c-3.6-3.9-7.3-20.4-8.2-23.3c0,0.1-0.1,0.2-0.1,0.4l-0.6,23.6&#10;&#9;&#9;&#9;&#9;C476.4,685.1,480,684.9,481.7,684.4z" style="fill: rgb(20, 62, 45);" transform="matrix(1, 0, 0, 1, 4.263256414560601e-14, 2.1316282072803006e-14)"/><g transform="matrix(1, 0, 0, 1, 2.842170943040401e-14, 1.4210854715202004e-14)">
			<path class="st87" d="M526.1,679.6c1.8,0.5,5.8,0.8,9.8,0.8l0.4-30C535.2,654.2,530.2,675.8,526.1,679.6z" style="fill: rgb(34, 79, 60);"/>
		</g><path class="st88" d="M546.6,679.6c-4.5-4.9-9.2-25.7-10.2-29.3c0,0,0,0,0,0.1l-0.4,30C540.2,680.4,544.6,680.2,546.6,679.6z" style="fill: rgb(20, 62, 45);" transform="matrix(1, 0, 0, 1, 4.263256414560601e-14, 2.1316282072803006e-14)"/><g transform="matrix(1, 0, 0, 1, 2.842170943040401e-14, 1.4210854715202004e-14)">
			<path class="st87" d="M1118,580.5c2,7.1,11.3,48.1,20.2,57.7c-7.5,2.1-32.9,2.1-40.4,0C1106,630.7,1116,587.6,1118,580.5z" style="fill: rgb(34, 79, 60);"/>
		</g><g transform="matrix(1, 0, 0, 1, 2.842170943040401e-14, 1.4210854715202004e-14)">
			<path class="st87" d="M980,596.8c-1.8,6.5-11,45.9-18.5,52.8c6.9,1.9,30.1,1.9,36.9,0C990.3,640.7,981.8,603.2,980,596.8z" style="fill: rgb(34, 79, 60);"/>
		</g><g transform="matrix(1, 0, 0, 1, 2.842170943040401e-14, 1.4210854715202004e-14)">
			<path class="st87" d="M1059.8,645.4c4.4,1.2,13.7,1.8,23.3,1.9l1.2-71.6C1081.7,585.1,1069.6,636.3,1059.8,645.4z" style="fill: rgb(34, 79, 60);"/>
		</g><path class="st88" d="M1108.9,645.4c-10.8-11.7-22.1-61.4-24.5-70c0,0.1-0.1,0.2-0.1,0.3l-1.2,71.6&#10;&#9;&#9;&#9;&#9;C1093.5,647.3,1104.1,646.7,1108.9,645.4z" style="fill: rgb(20, 62, 45);" transform="matrix(1, 0, 0, 1, 4.263256414560601e-14, 2.1316282072803006e-14)"/><g transform="matrix(1, 0, 0, 1, 2.842170943040401e-14, 1.4210854715202004e-14)">
			<path class="st87" d="M1194.4,567.4c-1.4,4.9-8.3,34.3-13.8,39.5c2.3,0.6,7,1,12,1.1l2.3-38.9&#10;&#9;&#9;&#9;&#9;C1194.7,568.4,1194.5,567.8,1194.4,567.4z" style="fill: rgb(34, 79, 60);"/>
		</g><path class="st88" d="M1208.3,607c-5.6-6.1-11.4-30.1-13.4-37.8l-2.3,38.9C1198.8,608.1,1205.4,607.7,1208.3,607z" style="fill: rgb(20, 62, 45);" transform="matrix(1, 0, 0, 1, 4.263256414560601e-14, 2.1316282072803006e-14)"/><g transform="matrix(1, 0, 0, 1, 2.842170943040401e-14, 1.4210854715202004e-14)">
			<path class="st87" d="M160.8,524.4c-1.4,4.8-8.1,33.8-13.6,38.8c2.6,0.7,8.6,1.1,14.3,1l-0.6-39.4&#10;&#9;&#9;&#9;&#9;C160.9,524.7,160.9,524.6,160.8,524.4z" style="fill: rgb(34, 79, 60);"/>
		</g><path class="st88" d="M161,524.9l0.6,39.4c5.3,0,10.5-0.4,12.9-1C168.6,557,162.6,531,161,524.9z" style="fill: rgb(20, 62, 45);" transform="matrix(1, 0, 0, 1, 4.263256414560601e-14, 2.1316282072803006e-14)"/><g transform="matrix(1, 0, 0, 1, 2.842170943040401e-14, 1.4210854715202004e-14)">
			<path class="st87" d="M108.9,520.4c-1.6,5.5-9.4,39.3-15.8,45.2c3,0.8,9.8,1.2,16.4,1.2l-0.4-45.4&#10;&#9;&#9;&#9;&#9;C109.1,520.9,109,520.6,108.9,520.4z" style="fill: rgb(34, 79, 60);"/>
		</g><path class="st88" d="M109.2,521.3l0.4,45.4c6.2,0,12.3-0.4,15.2-1.2C118.1,558.3,111.2,528.9,109.2,521.3z" style="fill: rgb(20, 62, 45);" transform="matrix(1, 0, 0, 1, 4.263256414560601e-14, 2.1316282072803006e-14)"/><g transform="matrix(1, 0, 0, 1, 2.842170943040401e-14, 1.4210854715202004e-14)">
			<path class="st87" d="M63.4,571.1c3.8,1.1,12.4,1.5,20.7,1.5L82.4,517C80.1,525.6,70.9,564.2,63.4,571.1z" style="fill: rgb(34, 79, 60);"/>
		</g><path class="st88" d="M82.6,516.3c-0.1,0.2-0.1,0.5-0.2,0.7l1.7,55.5c7.3-0.1,14.4-0.6,17.7-1.5C93.3,561.9,84.5,523,82.6,516.3z&#10;&#9;&#9;&#9;&#9;" style="fill: rgb(20, 62, 45);" transform="matrix(1, 0, 0, 1, 4.263256414560601e-14, 2.1316282072803006e-14)"/><g transform="matrix(1, 0, 0, 1, 2.842170943040401e-14, 1.4210854715202004e-14)">
			<path class="st87" d="M182.7,536.6c-1.1,3.8-6.5,26.9-10.8,30.9c2.2,0.6,7.2,0.9,12,0.8l-1.1-31.4&#10;&#9;&#9;&#9;&#9;C182.8,536.8,182.8,536.7,182.7,536.6z" style="fill: rgb(34, 79, 60);"/>
		</g><path class="st88" d="M182.8,536.9l1.1,31.4c4,0,7.8-0.3,9.7-0.8C188.9,562.5,184.1,541.5,182.8,536.9z" style="fill: rgb(20, 62, 45);" transform="matrix(1, 0, 0, 1, 4.263256414560601e-14, 2.1316282072803006e-14)"/><g transform="matrix(1, 0, 0, 1, 2.842170943040401e-14, 1.4210854715202004e-14)">
			<path class="st87" d="M496.7,611.4c2.6,0.7,8.2,1.1,13.9,1.1l-0.6-38.5C507.9,581.4,501.7,606.7,496.7,611.4z" style="fill: rgb(34, 79, 60);"/>
		</g><path class="st88" d="M510.3,572.6c-0.1,0.3-0.2,0.8-0.4,1.4l0.6,38.5c5.4,0,10.8-0.4,13.3-1.1&#10;&#9;&#9;&#9;&#9;C517.8,604.9,511.6,577.4,510.3,572.6z" style="fill: rgb(20, 62, 45);" transform="matrix(1, 0, 0, 1, 4.263256414560601e-14, 2.1316282072803006e-14)"/><g transform="matrix(1, 0, 0, 1, 2.842170943040401e-14, 1.4210854715202004e-14)">
			<path class="st87" d="M282,661.6c3.1,0.9,10.2,1.3,17.1,1.2l-1.4-45.7C295.8,624.2,288.2,655.8,282,661.6z" style="fill: rgb(34, 79, 60);"/>
		</g><path class="st88" d="M297.9,616.4c-0.1,0.2-0.1,0.4-0.2,0.7l1.4,45.7c6,0,11.8-0.5,14.6-1.2C306.7,654,299.4,621.9,297.9,616.4z&#10;&#9;&#9;&#9;&#9;" style="fill: rgb(20, 62, 45);" transform="matrix(1, 0, 0, 1, 4.263256414560601e-14, 2.1316282072803006e-14)"/><g transform="matrix(1, 0, 0, 1, 2.842170943040401e-14, 1.4210854715202004e-14)">
			<path class="st88" d="M543,615.7c-4.8-5.2-9.7-27.1-10.8-30.9c-0.1,0.5-0.4,1.4-0.7,2.5v29.2C536.1,616.5,540.9,616.3,543,615.7z&#10;&#9;&#9;&#9;&#9;" style="fill: rgb(20, 62, 45);"/>
		</g><path class="st87" d="M521.4,615.7c1.9,0.5,6,0.8,10.2,0.8v-29.2C529.6,594.5,525.1,612.2,521.4,615.7z" style="fill: rgb(34, 79, 60);" transform="matrix(1, 0, 0, 1, 4.263256414560601e-14, 2.1316282072803006e-14)"/><g transform="matrix(1, 0, 0, 1, 2.842170943040401e-14, 1.4210854715202004e-14)">
			<path class="st87" d="M849.9,673.1c3.8,1,12.1,1.6,20.3,1.6l-0.7-57.3C866.7,628.4,857.5,666.1,849.9,673.1z" style="fill: rgb(34, 79, 60);"/>
		</g><path class="st88" d="M870.2,615.3c-0.1,0.5-0.3,1.2-0.5,2l0.7,57.3c8.2,0,16.4-0.5,20.1-1.6&#10;&#9;&#9;&#9;&#9;C881.4,663.4,872.2,622.4,870.2,615.3z" style="fill: rgb(20, 62, 45);" transform="matrix(1, 0, 0, 1, 4.263256414560601e-14, 2.1316282072803006e-14)"/><g transform="matrix(1, 0, 0, 1, 2.842170943040401e-14, 1.4210854715202004e-14)">
			<path class="st87" d="M980,707.4c5.2,1.4,16.2,2.2,27.5,2.3l2.3-87.1C1005.8,637.7,991.6,696.6,980,707.4z" style="fill: rgb(34, 79, 60);"/>
		</g><path class="st88" d="M1040.8,707.4c-13.4-14.5-27.4-76.2-30.4-86.9c-0.2,0.5-0.3,1.2-0.6,2l-2.3,87.1&#10;&#9;&#9;&#9;&#9;C1020.8,709.8,1034.7,709.1,1040.8,707.4z" style="fill: rgb(20, 62, 45);" transform="matrix(1, 0, 0, 1, 4.263256414560601e-14, 2.1316282072803006e-14)"/><g transform="matrix(1, 0, 0, 1, 2.842170943040401e-14, 1.4210854715202004e-14)">
			<path class="st87" d="M812,680.2c3.9,1.1,11.8,1.7,20.3,1.9l3.4-68.7C832,627.5,821,671.9,812,680.2z" style="fill: rgb(34, 79, 60);"/>
		</g><path class="st88" d="M861,680.2c-10.8-11.7-22.1-61.4-24.5-70c-0.2,0.7-0.5,1.8-0.9,3.2l-3.4,68.7&#10;&#9;&#9;&#9;&#9;C843.5,682.3,855.8,681.7,861,680.2z" style="fill: rgb(20, 62, 45);" transform="matrix(1, 0, 0, 1, 4.263256414560601e-14, 2.1316282072803006e-14)"/><g transform="matrix(1, 0, 0, 1, 2.842170943040401e-14, 1.4210854715202004e-14)">
			<path class="st87" d="M961.1,650.3c1.6,5.7,9.1,39,16.4,46.8c-6.1,1.7-26.7,1.7-32.8,0C951.4,691,959.5,656.1,961.1,650.3z" style="fill: rgb(34, 79, 60);"/>
		</g><g transform="matrix(1, 0, 0, 1, 2.842170943040401e-14, 1.4210854715202004e-14)">
			<path class="st87" d="M767.8,615.1c-1.6,5.5-9.4,39.1-15.8,45c2.8,0.8,8.8,1.2,14.9,1.2l1-45.7&#10;&#9;&#9;&#9;&#9;C767.9,615.4,767.8,615.2,767.8,615.1z" style="fill: rgb(34, 79, 60);"/>
		</g><path class="st88" d="M783.5,660.1c-6.8-7.3-13.8-37.8-15.6-44.5l-1,45.7C773.6,661.3,780.5,660.9,783.5,660.1z" style="fill: rgb(20, 62, 45);" transform="matrix(1, 0, 0, 1, 4.263256414560601e-14, 2.1316282072803006e-14)"/><g transform="matrix(1, 0, 0, 1, 2.842170943040401e-14, 1.4210854715202004e-14)">
			<path class="st87" d="M708.1,646.6c2.9,0.8,9.5,1.2,15.9,1.2l-1.1-42.9C720.5,614.3,713.7,641.4,708.1,646.6z" style="fill: rgb(34, 79, 60);"/>
		</g><path class="st88" d="M723.6,602.4c-0.2,0.6-0.4,1.4-0.7,2.5l1.1,42.9c6.2,0,12.2-0.4,15-1.2&#10;&#9;&#9;&#9;&#9;C732.2,639.2,725.1,607.9,723.6,602.4z" style="fill: rgb(20, 62, 45);" transform="matrix(1, 0, 0, 1, 4.263256414560601e-14, 2.1316282072803006e-14)"/><g transform="matrix(1, 0, 0, 1, 2.842170943040401e-14, 1.4210854715202004e-14)">
			<path class="st87" d="M1028,740.6c4.9,1.4,15,2.1,25.7,2.3l4.3-87.7C1054.2,669.4,1039.8,729.7,1028,740.6z" style="fill: rgb(34, 79, 60);"/>
		</g><path class="st88" d="M1058.4,653.8c-0.1,0.4-0.3,0.9-0.4,1.5l-4.3,87.7c13.8,0.2,28.8-0.5,35.1-2.3&#10;&#9;&#9;&#9;&#9;C1075.4,726.1,1061.4,664.5,1058.4,653.8z" style="fill: rgb(20, 62, 45);" transform="matrix(1, 0, 0, 1, 4.263256414560601e-14, 2.1316282072803006e-14)"/><g transform="matrix(1, 0, 0, 1, 2.842170943040401e-14, 1.4210854715202004e-14)">
			<path class="st87" d="M1092.7,658.1c-1.6,5.7-9.8,40.7-16.4,46.8c6.1,1.7,26.7,1.7,32.8,0&#10;&#9;&#9;&#9;&#9;C1101.9,697.1,1094.4,663.8,1092.7,658.1z" style="fill: rgb(34, 79, 60);"/>
		</g><g transform="matrix(1, 0, 0, 1, 2.842170943040401e-14, 1.4210854715202004e-14)">
			<path class="st87" d="M254,711.6c3.5,1,11.2,1.5,18.9,1.5l-0.6-53.3C269.6,670.3,261,705.1,254,711.6z" style="fill: rgb(34, 79, 60);"/>
		</g><path class="st88" d="M291.8,711.6c-8.4-9-17-47.4-18.9-54c-0.1,0.5-0.3,1.3-0.6,2.2l0.6,53.3C280.6,713,288.3,712.5,291.8,711.6&#10;&#9;&#9;&#9;&#9;z" style="fill: rgb(20, 62, 45);" transform="matrix(1, 0, 0, 1, 4.263256414560601e-14, 2.1316282072803006e-14)"/><g transform="matrix(1, 0, 0, 1, 2.842170943040401e-14, 1.4210854715202004e-14)">
			<path class="st87" d="M229.4,639.6c-1.8,6.5-11.1,46.1-18.6,53c4,1.1,13.7,1.6,22.4,1.4l-3.6-53.8&#10;&#9;&#9;&#9;&#9;C229.5,640,229.4,639.8,229.4,639.6z" style="fill: rgb(34, 79, 60);"/>
		</g><path class="st88" d="M229.5,640.2l3.6,53.8c6.2-0.1,11.9-0.6,14.8-1.4C240,684,231.7,648.2,229.5,640.2z" style="fill: rgb(20, 62, 45);" transform="matrix(1, 0, 0, 1, 4.263256414560601e-14, 2.1316282072803006e-14)"/><g transform="matrix(1, 0, 0, 1, 2.842170943040401e-14, 1.4210854715202004e-14)">
			<path class="st87" d="M111.7,617.5c3.5,1,11.6,1.4,19.3,1.3l-2.4-49.2C126.2,578.3,118.2,611.5,111.7,617.5z" style="fill: rgb(34, 79, 60);"/>
		</g><path class="st88" d="M128.9,568.4c-0.1,0.3-0.2,0.7-0.3,1.2l2.4,49.2c6.3-0.1,12.3-0.5,15.1-1.3&#10;&#9;&#9;&#9;&#9;C138.5,609.3,130.6,574.4,128.9,568.4z" style="fill: rgb(20, 62, 45);" transform="matrix(1, 0, 0, 1, 4.263256414560601e-14, 2.1316282072803006e-14)"/><g transform="matrix(1, 0, 0, 1, 2.842170943040401e-14, 1.4210854715202004e-14)">
			<path class="st87" d="M198.5,634.8c-2.2,7.9-13.4,55.9-22.5,64.3c8.4,2.3,36.7,2.3,45,0C211,688.4,200.7,642.7,198.5,634.8z" style="fill: rgb(34, 79, 60);"/>
		</g><g transform="matrix(1, 0, 0, 1, 2.842170943040401e-14, 1.4210854715202004e-14)">
			<path class="st87" d="M313,672c0-0.1-0.1-0.2-0.1-0.3c-1.5,5.3-9,37.4-15,43c3.2,0.9,10.6,1.3,17.4,1.1L313,672z" style="fill: rgb(34, 79, 60);"/>
		</g><path class="st88" d="M313,672l2.3,43.8c5.3-0.1,10.2-0.5,12.6-1.1C321.4,707.6,314.7,678.1,313,672z" style="fill: rgb(20, 62, 45);" transform="matrix(1, 0, 0, 1, 4.263256414560601e-14, 2.1316282072803006e-14)"/><g transform="matrix(1, 0, 0, 1, 2.842170943040401e-14, 1.4210854715202004e-14)">
			<path class="st87" d="M135.4,639.3c-1.4,5.1-8.6,35.9-14.5,41.3c2.5,0.7,7.9,1.1,13.4,1.1l1.8-39.6&#10;&#9;&#9;&#9;&#9;C135.8,640.9,135.5,640,135.4,639.3z" style="fill: rgb(34, 79, 60);"/>
		</g><path class="st88" d="M149.8,680.7c-5.6-6.1-11.4-29.5-13.7-38.5l-1.8,39.6C140.5,681.8,147,681.4,149.8,680.7z" style="fill: rgb(20, 62, 45);" transform="matrix(1, 0, 0, 1, 4.263256414560601e-14, 2.1316282072803006e-14)"/><g transform="matrix(1, 0, 0, 1, 2.842170943040401e-14, 1.4210854715202004e-14)">
			<path class="st87" d="M80.6,668.3c2.7,0.7,8.5,1.1,14.3,1.1l-0.3-41C92.8,634.9,86.1,663.2,80.6,668.3z" style="fill: rgb(34, 79, 60);"/>
		</g><path class="st88" d="M94.8,627.7c-0.1,0.2-0.1,0.4-0.2,0.7l0.3,41c5.8,0,11.5-0.4,14.1-1.1C102.7,661.5,96.2,632.7,94.8,627.7z" style="fill: rgb(20, 62, 45);" transform="matrix(1, 0, 0, 1, 4.263256414560601e-14, 2.1316282072803006e-14)"/><g transform="matrix(1, 0, 0, 1, 2.842170943040401e-14, 1.4210854715202004e-14)">
			<path class="st87" d="M156,587.2c-1.7,6-10.3,42.7-17.2,49.1c3.5,1,11.4,1.4,18.9,1.3l-1.6-50.2C156.1,587.4,156,587.3,156,587.2&#10;&#9;&#9;&#9;&#9;z" style="fill: rgb(34, 79, 60);"/>
		</g><path class="st88" d="M156.1,587.4l1.6,50.2c6.4-0.1,12.6-0.5,15.5-1.3C165.7,628.2,157.9,594,156.1,587.4z" style="fill: rgb(20, 62, 45);" transform="matrix(1, 0, 0, 1, 4.263256414560601e-14, 2.1316282072803006e-14)"/><g transform="matrix(1, 0, 0, 1, 2.842170943040401e-14, 1.4210854715202004e-14)">
			<path class="st87" d="M433.7,678.8c-1.5,5.3-9,37.4-15,43c2.8,0.8,9.1,1.2,15.3,1.2v-43.3C433.9,679.3,433.8,679.1,433.7,678.8z" style="fill: rgb(34, 79, 60);"/>
		</g><path class="st88" d="M434,679.7V723c6,0,12.1-0.4,14.8-1.2C442.4,714.9,435.8,686.7,434,679.7z" style="fill: rgb(20, 62, 45);" transform="matrix(1, 0, 0, 1, 4.263256414560601e-14, 2.1316282072803006e-14)"/>
<g transform="matrix(1, 0, 0, 1, 1.4210854715202004e-14, 7.105427357601002e-15)">
		<g>
			<path class="st85" d="M1.2,981.3l0.1-270.2c0,0,68.7-57.5,395,100.5c68.5,33.2,706.9,102.4,889.8-327.7&#10;&#9;&#9;&#9;&#9;c11.3-26.5,22.7-53.3,40.1-76.2c17.5-22.9,48-39.7,75-29.6v603.1H1.2z" style="fill: rgb(62, 117, 92);"/>
		</g>
		<g>
			<path class="st86" d="M1326.2,407.8c-17.5,22.9-28.5,49.9-40.1,76.2c-181.9,412.6-821.2,360.8-889.8,327.7&#10;&#9;&#9;&#9;&#9;C70,653.6,1.3,711.1,1.3,711.1L1.2,981.3h0l0.1-254.4c0,0,68.7-57.5,395,100.5c68.5,33.2,699.5,87.2,889.8-327.7&#10;&#9;&#9;&#9;&#9;c12-26.1,22.7-53.3,40.1-76.2c17.5-22.9,48-39.7,75-29.6v-15.8C1374.2,368,1343.7,384.9,1326.2,407.8z" style="fill: rgb(80, 152, 114);"/>
		</g>
	</g>
<g transform="matrix(1, 0, 0, 1, 1.4210854715202004e-14, 7.105427357601002e-15)">
		<path class="st89" d="M638.2,831.1c0,0-22.2-50.8-67.2-97.1c-26.8-27.6,19-45.4,48-47.2c29-1.8,4-31.8,4-31.8l14.6-0.8&#10;&#9;&#9;&#9;c0,0,39.4,29.8,22.4,38.8s-57.1,20.7-36.8,37.8c37.6,31.8,65.8,56,76.8,96.1L638.2,831.1z" style="fill: rgb(0, 179, 179);"/>
	</g><path class="st89" d="M570,980c-42.9-19.4-89.5-60.7-86.5-78c8.5-48.1,48.8-71,63.5-70.5c20.9,0.7,42,0.8,63.1,0.4&#10;&#9;&#9;&#9;c-12,3-46.4,37.4-27.2,57.1c22,22.5,154.9,71.2,232.9,91H570z" style="fill: rgb(0, 179, 179);" transform="matrix(1, 0, 0, 1, 2.842170943040401e-14, 1.4210854715202004e-14)"/>
<g transform="matrix(1, 0, 0, 1, 1.4210854715202004e-14, 7.105427357601002e-15)">
		<g>
			<g>
				<path class="st87" d="M1107.3,984.1l6.1-219.8c-0.5-2-1-3.8-1.4-5.1c-7.7,27.1-45.1,187.2-76.7,225H1107.3z" style="fill: rgb(34, 79, 60);"/>
			</g>
			<g>
				<path class="st88" d="M1189,984.1c-32.7-41.5-65.7-182.4-75.6-219.8l-6.1,219.8H1189z" style="fill: rgb(20, 62, 45);"/>
			</g>
		</g>
		<g>
			<g>
				<path class="st88" d="M1296.6,675.3c-0.2,0.9-0.5,1.9-0.8,3l2.8,292c40.2-0.1,80.1-2.7,98.5-7.8&#10;&#9;&#9;&#9;&#9;&#9;C1352.8,914.4,1306.7,710.5,1296.6,675.3z" style="fill: rgb(20, 62, 45);"/>
			</g>
			<g>
				<path class="st87" d="M1196.1,962.4c19,5.3,61,7.9,102.6,7.8l-2.8-292C1284.2,721,1235.7,925.8,1196.1,962.4z" style="fill: rgb(34, 79, 60);"/>
			</g>
		</g>
		<g>
			<g>
				<path class="st87" d="M1202.1,984.1l3.4-159.7c-0.4-1.6-0.8-3.1-1.2-4.4c-5.8,20.3-23,91.8-44.6,164.1H1202.1z" style="fill: rgb(34, 79, 60);"/>
			</g>
			<g>
				<path class="st88" d="M1248.6,984.1c-20.4-67.9-36.3-134.6-43-159.7l-3.4,159.7H1248.6z" style="fill: rgb(20, 62, 45);"/>
			</g>
		</g>
		<g>
			<g>
				<path class="st88" d="M1401.2,728.7c-2.2-8.5-4-15.4-5.4-20.3l-4.4,275.7h9.9V728.7z" style="fill: rgb(20, 62, 45);"/>
			</g>
			<g>
				<path class="st87" d="M1391.3,984.1l4.4-275.7c0,0,0,0,0,0c-9.4,33-39.5,159.2-76.2,275.8H1391.3z" style="fill: rgb(34, 79, 60);"/>
			</g>
		</g>
		<g>
			<g>
				<path class="st87" d="M1016.6,984.1l-5.3-188.4c-0.6-2.1-1.1-3.9-1.5-5.5c-6.9,24.2-27,108.1-52.6,194H1016.6z" style="fill: rgb(34, 79, 60);"/>
			</g>
			<g>
				<path class="st88" d="M1061.9,984.1c-23.9-80.4-42.6-158.4-50.6-188.4l5.3,188.4H1061.9z" style="fill: rgb(20, 62, 45);"/>
			</g>
		</g>
	</g><g transform="matrix(1, 0, 0, 1, 2.842170943040401e-14, 1.4210854715202004e-14)">
			<g>
				<path class="st88" d="M189.9,984.1c-30.6-79.1-56.5-192.1-63.8-217.5c-0.2,0.9-0.5,1.9-0.8,3l2.1,214.6H189.9z" style="fill: rgb(20, 62, 45);"/>
			</g>
			<g>
				<path class="st87" d="M127.4,984.1l-2.1-214.6c-8.2,29.9-34.3,139.1-62.9,214.6H127.4z" style="fill: rgb(34, 79, 60);"/>
			</g>
		</g><g transform="matrix(1, 0, 0, 1, 4.263256414560601e-14, 2.1316282072803006e-14)">
				<path class="st87" d="M33.5,984.1l1.5-68.4c-0.4-1.6-0.8-3.1-1.2-4.4c-3.2,11.3-10,38.5-19,72.8H33.5z" style="fill: rgb(34, 79, 60);"/>
			</g><path class="st88" d="M52.6,984.1c-8-30.4-14.1-55.2-17.6-68.4l-1.5,68.4H52.6z" style="fill: rgb(20, 62, 45);" transform="matrix(1, 0, 0, 1, 4.263256414560601e-14, 2.1316282072803006e-14)"/><g transform="matrix(1, 0, 0, 1, 4.263256414560601e-14, 2.1316282072803006e-14)">
				<path class="st88" d="M273.9,984.1c-23.8-84.6-41.6-159.5-48.7-184.5l-3,184.5H273.9z" style="fill: rgb(20, 62, 45);"/>
			</g><path class="st87" d="M222.2,984.1l3-184.5c0,0,0,0,0,0c-6.9,24.4-25.2,99.8-49.1,184.5H222.2z" style="fill: rgb(34, 79, 60);" transform="matrix(1, 0, 0, 1, 4.263256414560601e-14, 2.1316282072803006e-14)"/>

<g class="st95" transform="matrix(1, 0, 0, 1, 1.4210854715202004e-14, 7.105427357601002e-15)" style="opacity: 0.15;">
		<g>
			<path class="st82" d="M192.5,404.5c28.5-1.5,57-4.5,85.2-8.9c-17.9-5.5-37.9-15.2-41.2-33.6c-2-11.4,3.5-23.2,12.2-30.8&#10;&#9;&#9;&#9;&#9;c8.7-7.6,20.1-11.4,31.5-13c13.9-2,29.5-0.5,39.6,9.3c14.6,14.1,11.4,38.4,3.9,57.3c4.7-19,24.9-32.7,44.3-30.2&#10;&#9;&#9;&#9;&#9;c4.7,0.6,9.8,2.6,11.4,7c3.5,9.5-11.4,15.1-15.4,24.4c8.5-4.1,16.1-10,24.8-13.6c8.7-3.6,19.5-4.5,27,1.2&#10;&#9;&#9;&#9;&#9;c7.5,5.7,8.3,19.5-0.1,23.7c23.9,3.4,47.9,6.7,71.8,10.1c-25.2,3-50.7,3.1-76.1,3.2c-72,0.2-143.9,0.5-215.9,0.7&#10;&#9;&#9;&#9;&#9;c-3.1,0-7.4-3.4-4.7-4.9L192.5,404.5z" style="fill: rgb(255, 255, 255);"/>
		</g>
	</g><g transform="matrix(1, 0, 0, 1, 2.842170943040401e-14, 1.4210854715202004e-14)" style="opacity: 0.15;">
			<path class="st82" d="M1096.9,124.7c20.6-1.1,41.2-3.3,61.7-6.4c-12.9-4-27.4-11-29.8-24.3c-1.5-8.2,2.5-16.8,8.8-22.3&#10;&#9;&#9;&#9;&#9;c6.3-5.5,14.6-8.2,22.8-9.4c10.1-1.4,21.4-0.4,28.7,6.7c10.6,10.2,8.3,27.8,2.8,41.5c3.4-13.7,18-23.7,32.1-21.9&#10;&#9;&#9;&#9;&#9;c3.4,0.4,7.1,1.9,8.3,5.1c2.5,6.9-8.2,10.9-11.1,17.6c6.2-2.9,11.6-7.2,17.9-9.9c6.3-2.6,14.1-3.3,19.5,0.8&#10;&#9;&#9;&#9;&#9;c5.4,4.1,6,14.1-0.1,17.1c17.3,2.4,34.7,4.9,52,7.3c-18.3,2.2-36.7,2.3-55.1,2.3c-52.1,0.2-104.2,0.3-156.3,0.5&#10;&#9;&#9;&#9;&#9;c-2.3,0-5.4-2.5-3.4-3.6L1096.9,124.7z" style="fill: rgb(255, 255, 255);"/>
		</g><g transform="matrix(1, 0, 0, 1, 2.842170943040401e-14, 1.4210854715202004e-14)" style="opacity: 0.15;">
			<path class="st82" d="M264.3,243.8c22.5-1.2,45-3.5,67.3-7c-14.1-4.3-29.9-12-32.5-26.6c-1.6-9,2.7-18.3,9.6-24.3&#10;&#9;&#9;&#9;&#9;c6.9-6,15.9-9,24.9-10.3c11-1.6,23.3-0.4,31.3,7.3c11.6,11.2,9,30.3,3.1,45.2c3.7-15,19.7-25.8,35-23.8c3.7,0.5,7.8,2,9,5.5&#10;&#9;&#9;&#9;&#9;c2.7,7.5-9,11.9-12.1,19.2c6.7-3.2,12.7-7.9,19.6-10.8s15.4-3.6,21.3,0.9c5.9,4.5,6.6,15.4-0.1,18.7c18.9,2.6,37.8,5.3,56.7,7.9&#10;&#9;&#9;&#9;&#9;c-19.9,2.4-40,2.5-60.1,2.5c-56.8,0.2-113.7,0.4-170.5,0.5c-2.5,0-5.9-2.7-3.7-3.9L264.3,243.8z" style="fill: rgb(255, 255, 255);"/>
		</g><g transform="matrix(1, 0, 0, 1, 2.842170943040401e-14, 1.4210854715202004e-14)" style="opacity: 0.15;">
			<path class="st82" d="M904.6,280.7c12,0.6,24.1-0.6,35.8-3.4c-4.4-0.6-8.9-1.1-13.3-1.7c-1.3-0.2-2.7-0.4-3.5-1.5&#10;&#9;&#9;&#9;&#9;c-1.8-2.5,2.1-5.2,5.1-5.6c5.7-0.8,11.7-0.5,17.3,0.9c-7.1-8.4-14.4-17.5-15.7-28.4c-1.3-10.9,6.5-23.6,17.5-23.1&#10;&#9;&#9;&#9;&#9;c9.5,0.5,16.1,10.2,18,19.6c1.9,9.4,0.9,19.2,3.5,28.4c0.4-9,10.1-16.7,18.7-14c8.6,2.7,11.7,15.9,4.6,21.4&#10;&#9;&#9;&#9;&#9;c17.4-1.7,35.2,0.2,51.8,5.6c-8.3,1-16.7,1.9-25,2.9c-40.5,4.7-81.8,9.4-121.7,0.9L904.6,280.7z" style="fill: rgb(255, 255, 255);"/>
		</g><g transform="matrix(1, 0, 0, 1, 2.842170943040401e-14, 1.4210854715202004e-14)" style="opacity: 0.15;">
			<path class="st82" d="M1187.7,342.8c17.9-0.4,36.8-12.1,54.7-10.9c-3.3-5.6-8.5-9.9-14.6-12.1c-1.3-6,6-11,12.1-9.9&#10;&#9;&#9;&#9;&#9;c6.1,1.1,10.7,5.9,14.9,10.4c0.7-7.4,1.5-15.1,5.4-21.4c3.9-6.3,11.9-10.7,18.9-8c5.3,2.1,8.5,7.7,9.3,13.4&#10;&#9;&#9;&#9;&#9;c0.8,5.6-0.5,11.3-1.7,16.9c5.4,1.3,11.1-2.1,14.3-6.6c3.2-4.5,4.6-10.1,6.5-15.3c3.6-10.3,9.2-20.1,18-26.6&#10;&#9;&#9;&#9;&#9;c2.5-1.9,5.5-3.5,8.6-3.6c9.6-0.4,14.2,12.1,13.4,21.7c-1.4,15.4-9.4,30.1-21.6,39.7c14.8-2.3,30.3-0.3,44,5.8&#10;&#9;&#9;&#9;&#9;c-9.7,6.2-21.9,6.7-33.5,7C1296.3,344.1,1227.7,341.8,1187.7,342.8z" style="fill: rgb(255, 255, 255);"/>
		</g><g transform="matrix(1, 0, 0, 1, 2.842170943040401e-14, 1.4210854715202004e-14)" style="opacity: 0.15;">
			<path class="st82" d="M607.6,461.5c13.8-0.3,28.4-9.3,42.2-8.4c-2.5-4.3-6.6-7.6-11.2-9.3c-1-4.6,4.6-8.5,9.3-7.7&#10;&#9;&#9;&#9;&#9;c4.7,0.8,8.2,4.5,11.5,8c0.5-5.7,1.1-11.6,4.1-16.5c3-4.9,9.2-8.3,14.5-6.2c4.1,1.6,6.6,6,7.2,10.3c0.6,4.4-0.4,8.7-1.3,13&#10;&#9;&#9;&#9;&#9;c4.2,1,8.5-1.6,11-5.1c2.5-3.5,3.6-7.8,5-11.8c2.8-7.9,7.1-15.5,13.8-20.5c2-1.5,4.2-2.7,6.6-2.8c7.4-0.3,11,9.3,10.3,16.7&#10;&#9;&#9;&#9;&#9;c-1.1,11.9-7.2,23.2-16.6,30.6c11.4-1.8,23.3-0.2,33.9,4.4c-7.5,4.8-16.9,5.2-25.8,5.4C691.3,462.5,638.4,460.7,607.6,461.5z" style="fill: rgb(255, 255, 255);"/>
		</g><g transform="matrix(1, 0, 0, 1, 2.842170943040401e-14, 1.4210854715202004e-14)" style="opacity: 0.15;">
			<path class="st82" d="M96.3,167.9c-7-1.6-14.3-3.8-19.4-8.9c-5.1-5.1-7.2-13.9-2.7-19.6c4.4-5.6,13.5-5.7,19.4-1.7&#10;&#9;&#9;&#9;&#9;c5.9,4.1,9,11.1,10.5,18.1c-0.4-7.3-0.3-15.1,3.5-21.4c3.8-6.3,12.8-9.9,18.8-5.7c7.3,5,5.3,16.1,2.5,24.5&#10;&#9;&#9;&#9;&#9;c5-8.1,8.5-17,13.9-24.8c5.4-7.8,13.2-14.7,22.6-15.8c9.4-1,20,5.9,20.1,15.3c0.2,12.9-15.8,18.9-23.7,29.1&#10;&#9;&#9;&#9;&#9;c14.2-1.8,28.7-0.8,42.5,3.1c0.2,3-3.7,4.2-6.7,4.5c-51,4.3-102,8.5-153,12.8c10.1-2.1,20.2-4.2,30.3-6.3L96.3,167.9z" style="fill: rgb(255, 255, 255);"/>
		</g>

</svg>